{"glyphs":{"0":{"ha":990,"x_min":0,"x_max":0,"o":"m 500 161 b 288 474 361 161 288 265 l 288 521 b 497 833 288 726 358 833 b 704 521 635 833 704 721 l 704 476 b 500 161 704 268 640 161 z m 494 -15 b 928 478 763 -15 928 174 l 928 524 b 496 1007 928 832 751 1007 b 63 519 240 1007 63 825 l 63 472 b 494 -15 63 168 231 -15 z "},"1":{"ha":599,"x_min":0,"x_max":0,"o":"m 246 0 l 471 0 l 471 993 l 274 993 l 44 831 l 44 639 l 246 771 z "},"2":{"ha":824,"x_min":0,"x_max":0,"o":"m 17 0 l 767 0 l 767 171 l 381 171 l 568 354 b 760 706 683 465 760 574 b 415 1007 760 885 635 1007 b 43 653 193 1007 54 882 l 247 653 b 406 835 263 783 318 835 b 538 700 492 835 538 782 b 381 421 538 610 476 522 l 17 36 z "},"3":{"ha":882,"x_min":0,"x_max":0,"o":"m 435 -15 b 819 289 676 -15 819 103 b 626 522 819 415 742 497 b 790 738 725 557 790 626 b 444 1007 790 893 663 1007 b 78 692 218 1007 89 874 l 276 692 b 440 842 288 785 346 842 b 578 718 532 842 578 789 b 426 586 578 633 531 586 l 354 586 l 354 436 l 432 436 b 592 293 539 436 592 388 b 426 150 592 204 539 150 b 247 315 307 150 256 219 l 44 315 b 435 -15 53 114 182 -15 z "},"4":{"ha":911,"x_min":0,"x_max":0,"o":"m 524 0 l 742 0 l 742 197 l 872 197 l 872 358 l 742 358 l 742 993 l 465 993 l 36 279 l 36 197 l 524 197 z m 261 358 l 528 824 l 528 358 z "},"5":{"ha":854,"x_min":0,"x_max":0,"o":"m 413 -15 b 793 331 642 -15 793 119 b 489 665 793 542 669 665 b 268 574 376 665 307 621 l 272 822 l 733 822 l 733 993 l 104 993 l 90 428 l 215 428 b 406 507 256 474 313 507 b 567 333 506 507 567 440 b 411 157 567 228 513 157 b 251 296 297 157 264 213 l 44 296 b 413 -15 54 118 168 -15 z "},"6":{"ha":908,"x_min":0,"x_max":0,"o":"m 471 -15 b 853 326 707 -15 853 122 b 525 649 853 526 713 649 b 285 525 406 649 331 599 b 490 838 290 729 367 838 b 624 732 576 838 610 797 l 832 732 b 488 1007 810 914 685 1007 b 63 483 244 1007 63 819 l 63 458 b 471 -15 63 188 171 -15 z m 468 147 b 299 331 368 147 299 217 b 468 500 299 429 368 500 b 632 324 569 500 632 428 b 468 147 632 219 567 147 z "},"7":{"ha":775,"x_min":0,"x_max":0,"o":"m 172 0 l 401 0 l 757 968 l 757 993 l 38 993 l 38 811 l 475 811 z "},"8":{"ha":888,"x_min":0,"x_max":0,"o":"m 444 -15 b 832 286 665 -15 832 92 b 650 531 832 404 767 490 b 794 738 738 569 794 638 b 446 1007 794 907 636 1007 b 94 736 260 1007 94 908 b 239 529 94 636 149 567 b 56 281 125 489 56 401 b 444 -15 56 86 225 -15 z m 444 149 b 279 301 353 149 279 203 b 446 454 279 400 354 454 b 610 303 539 454 610 400 b 444 149 610 204 539 149 z m 447 592 b 304 721 369 592 304 640 b 446 850 304 801 367 850 b 586 722 525 850 586 799 b 447 592 586 640 528 592 z "},"9":{"ha":910,"x_min":0,"x_max":0,"o":"m 431 -14 b 846 493 697 -14 846 168 l 846 538 b 440 1008 846 824 714 1008 b 56 664 203 1008 56 869 b 388 343 56 463 196 343 b 625 464 507 343 579 392 b 424 157 621 261 556 157 b 275 268 329 157 289 200 l 65 268 b 431 -14 88 89 215 -14 z m 438 493 b 274 669 338 493 274 565 b 438 846 274 774 339 846 b 607 660 539 846 607 775 b 438 493 607 563 539 493 z "},"Ð":{"ha":1046,"x_min":0,"x_max":0,"o":"m 43 421 l 133 421 l 133 0 l 457 0 b 979 496 806 0 979 199 l 979 507 b 458 993 979 804 807 993 l 133 993 l 133 576 l 43 576 z m 356 175 l 356 421 l 565 421 l 565 576 l 356 576 l 356 818 l 449 818 b 744 504 657 818 744 708 l 744 493 b 450 175 744 288 651 175 z "},"ð":{"ha":856,"x_min":0,"x_max":0,"o":"m 218 781 l 399 858 b 543 661 458 797 510 732 b 372 736 500 710 451 736 b 44 376 204 736 44 597 l 44 363 b 424 -15 44 131 207 -15 b 810 382 653 -15 810 140 l 810 413 b 561 928 810 632 689 808 l 657 969 l 622 1050 l 485 990 b 388 1056 451 1017 418 1038 l 158 1056 b 329 924 213 1017 272 972 l 182 860 z m 428 138 b 250 360 314 138 250 219 l 250 371 b 429 590 250 510 318 590 b 606 368 542 590 606 507 l 606 358 b 428 138 606 221 540 138 z "},"Ł":{"ha":804,"x_min":0,"x_max":0,"o":"m 43 329 l 133 361 l 133 0 l 763 0 l 763 176 l 358 176 l 358 440 l 618 532 l 618 663 l 358 569 l 358 993 l 133 993 l 133 490 l 43 458 z "},"ł":{"ha":435,"x_min":0,"x_max":0,"o":"m 25 388 l 117 433 l 117 0 l 317 0 l 317 536 l 414 586 l 414 724 l 317 674 l 317 1056 l 117 1056 l 117 571 l 25 525 z "},"Š":{"ha":889,"x_min":0,"x_max":0,"o":"m 347 1060 l 518 1060 l 674 1253 l 532 1253 l 438 1181 l 342 1253 l 197 1253 z m 454 -15 b 833 301 689 -15 833 125 b 469 603 833 507 710 572 b 285 729 317 625 285 658 b 433 842 285 796 335 842 b 599 710 532 842 585 800 l 806 710 b 433 1007 788 907 657 1007 b 72 711 214 1007 72 881 b 431 410 72 519 176 443 b 618 281 576 388 618 360 b 454 149 618 203 553 149 b 260 311 307 149 269 222 l 44 311 b 454 -15 57 113 182 -15 z "},"š":{"ha":697,"x_min":0,"x_max":0,"o":"m 264 826 l 415 826 l 578 1043 l 439 1043 l 343 956 l 247 1043 l 106 1043 z m 353 -15 b 658 224 544 -15 658 67 b 376 451 658 379 558 425 b 236 531 271 467 236 485 b 339 606 236 575 274 606 b 453 518 408 606 442 578 l 638 518 b 338 743 619 685 499 743 b 50 517 189 743 50 668 b 318 290 50 375 125 319 b 465 204 422 275 465 254 b 351 125 465 154 429 125 b 224 228 264 125 232 163 l 36 228 b 353 -15 43 71 157 -15 z "},"Ý":{"ha":900,"x_min":0,"x_max":0,"o":"m 346 0 l 572 0 l 572 428 l 882 993 l 664 993 l 467 613 l 265 993 l 18 993 l 346 428 z m 369 1060 l 521 1060 l 661 1253 l 443 1253 z "},"ý":{"ha":788,"x_min":0,"x_max":0,"o":"m 181 -247 l 375 -247 l 768 726 l 575 726 l 413 290 l 236 726 l 19 726 l 308 74 z m 326 825 l 472 825 l 617 1046 l 406 1046 z "},"Þ":{"ha":869,"x_min":0,"x_max":0,"o":"m 107 0 l 331 0 l 331 203 l 457 203 b 829 510 683 203 829 301 l 829 515 b 450 822 829 726 692 822 l 331 822 l 331 993 l 107 993 z m 331 361 l 331 658 l 444 658 b 613 515 551 658 613 619 l 613 510 b 444 361 613 411 554 361 z "},"þ":{"ha":885,"x_min":0,"x_max":0,"o":"m 89 -247 l 290 -247 l 290 111 b 522 -15 328 40 410 -15 b 839 360 703 -15 839 119 l 839 371 b 522 743 839 611 700 743 b 290 613 415 743 331 682 l 290 1056 l 89 1056 z m 463 142 b 283 358 353 142 283 213 l 283 369 b 461 589 283 515 356 589 b 635 369 563 589 635 517 l 635 358 b 463 142 635 217 574 142 z "},"Ž":{"ha":854,"x_min":0,"x_max":0,"o":"m 343 1060 l 514 1060 l 669 1253 l 528 1253 l 433 1181 l 338 1253 l 193 1253 z m 25 0 l 800 0 l 800 176 l 353 176 l 817 967 l 817 993 l 78 993 l 78 818 l 499 818 l 25 28 z "},"ž":{"ha":693,"x_min":0,"x_max":0,"o":"m 276 826 l 428 826 l 590 1043 l 451 1043 l 356 956 l 260 1043 l 118 1043 z m 19 0 l 656 0 l 656 156 l 308 156 l 669 701 l 669 726 l 56 726 l 56 571 l 378 571 l 19 22 z "},"½":{"ha":1056,"x_min":0,"x_max":0,"o":"m 65 0 l 182 0 l 932 993 l 815 993 z m 147 489 l 300 489 l 300 993 l 168 993 l 33 903 l 33 779 l 147 847 z m 601 0 l 1018 0 l 1018 110 l 846 110 l 914 175 b 1014 354 974 232 1014 286 b 821 511 1014 444 950 511 b 611 319 696 511 617 444 l 749 319 b 814 400 756 375 778 400 b 867 346 849 400 867 379 b 779 207 867 303 833 261 l 601 21 z "},"¼":{"ha":1046,"x_min":0,"x_max":0,"o":"m 147 489 l 300 489 l 300 993 l 168 993 l 33 903 l 33 779 l 147 847 z m 83 0 l 200 0 l 950 993 l 833 993 z m 803 0 l 949 0 l 949 96 l 1014 96 l 1014 199 l 949 199 l 949 504 l 767 504 l 551 151 l 551 96 l 803 96 z m 689 199 l 807 401 l 807 199 z "},"¹":{"ha":369,"x_min":0,"x_max":0,"o":"m 143 489 l 296 489 l 296 993 l 164 993 l 29 903 l 29 779 l 143 847 z "},"¾":{"ha":1074,"x_min":0,"x_max":0,"o":"m 246 479 b 457 639 383 479 457 543 b 356 753 457 700 415 742 b 444 861 411 768 444 804 b 249 1000 444 946 372 1000 b 44 832 121 1000 51 929 l 178 832 b 246 894 183 871 208 894 b 301 844 283 894 301 874 b 233 789 301 810 281 789 l 194 789 l 194 700 l 235 700 b 304 643 282 700 304 681 b 238 586 304 608 282 586 b 164 654 190 586 168 615 l 31 654 b 246 479 35 551 99 479 z m 143 0 l 260 0 l 1010 993 l 893 993 z m 828 0 l 974 0 l 974 96 l 1039 96 l 1039 199 l 974 199 l 974 504 l 792 504 l 576 151 l 576 96 l 828 96 z m 714 199 l 832 401 l 832 199 z "},"³":{"ha":488,"x_min":0,"x_max":0,"o":"m 242 479 b 453 639 379 479 453 543 b 351 753 453 700 411 742 b 440 861 407 768 440 804 b 244 1000 440 946 368 1000 b 40 832 117 1000 47 929 l 174 832 b 242 894 179 871 204 894 b 297 844 279 894 297 874 b 229 789 297 810 276 789 l 190 789 l 190 700 l 231 700 b 300 643 278 700 300 681 b 233 586 300 608 278 586 b 160 654 186 586 164 615 l 26 654 b 242 479 31 551 94 479 z "},"²":{"ha":457,"x_min":0,"x_max":0,"o":"m 8 489 l 425 489 l 425 597 l 253 597 l 321 664 b 421 843 381 721 421 774 b 228 1000 421 933 357 1000 b 18 808 103 1000 24 933 l 156 808 b 221 888 163 864 185 888 b 274 833 256 888 274 867 b 186 694 274 792 240 750 l 8 508 z "},"¦":{"ha":369,"x_min":0,"x_max":0,"o":"m 110 -206 l 254 -206 l 254 417 l 110 417 z m 110 514 l 254 514 l 254 1078 l 110 1078 z "},"−":{"ha":768,"x_min":0,"x_max":0,"o":"m 51 394 l 717 394 l 717 551 l 51 551 z "},"×":{"ha":742,"x_min":0,"x_max":0,"o":"m 158 146 l 369 358 l 583 143 l 693 251 l 478 465 l 690 678 l 583 785 l 369 572 l 156 788 l 49 679 l 264 465 l 51 253 z "}," ":{"ha":308,"x_min":0,"x_max":0,"o":""},"!":{"ha":439,"x_min":0,"x_max":0,"o":"m 219 -12 b 346 107 289 -12 346 40 b 219 228 346 175 289 228 b 93 107 150 228 93 175 b 219 -12 93 40 150 -12 z m 139 310 l 303 310 l 333 993 l 108 993 z "},"\"":{"ha":597,"x_min":0,"x_max":0,"o":"m 93 626 l 235 626 l 261 993 l 67 993 z m 363 626 l 506 626 l 531 993 l 336 993 z "},"#":{"ha":763,"x_min":0,"x_max":0,"o":"m 367 138 l 507 138 l 539 356 l 678 356 l 678 515 l 563 515 l 582 649 l 713 649 l 713 803 l 604 803 l 633 993 l 493 993 l 464 803 l 360 803 l 388 993 l 247 993 l 218 803 l 85 803 l 85 649 l 196 649 l 176 515 l 50 515 l 50 356 l 153 356 l 121 138 l 263 138 l 294 356 l 399 356 z m 338 649 l 442 649 l 422 515 l 318 515 z "},"$":{"ha":889,"x_min":0,"x_max":0,"o":"m 399 -187 l 497 -187 l 497 -14 b 833 301 717 1 833 135 b 497 596 833 494 706 564 l 497 844 b 618 714 571 831 606 786 l 817 714 b 497 1004 800 893 686 988 l 497 1129 l 399 1129 l 399 1006 b 72 714 200 992 72 874 b 399 415 72 531 178 450 l 399 147 b 250 310 289 164 260 229 l 44 310 b 399 -14 56 135 158 3 z m 628 278 b 497 147 628 210 578 161 l 497 400 b 628 278 600 378 628 344 z m 272 732 b 399 847 272 790 317 836 l 399 613 b 272 732 296 633 272 668 z "},"%":{"ha":1126,"x_min":0,"x_max":0,"o":"m 290 640 b 193 761 231 640 193 682 b 290 881 193 836 231 881 b 385 761 350 881 385 835 b 290 640 385 685 350 640 z m 289 515 b 539 763 435 515 539 621 b 290 1003 539 903 429 1003 b 39 760 150 1003 39 899 b 289 515 39 619 142 515 z m 172 0 l 297 0 l 957 993 l 832 993 z m 838 111 b 742 231 779 111 742 153 b 838 350 742 307 779 350 b 933 231 899 350 933 306 b 838 111 933 156 899 111 z m 838 -15 b 1088 233 983 -15 1088 92 b 838 474 1088 374 978 474 b 588 229 699 474 588 369 b 838 -15 588 90 690 -15 z "},"&":{"ha":1019,"x_min":0,"x_max":0,"o":"m 986 515 l 808 515 l 719 342 l 564 532 b 767 781 696 588 767 668 b 497 1003 767 922 642 1003 b 206 756 340 1003 206 917 b 275 568 206 700 226 635 b 54 276 140 503 54 414 b 390 -14 54 96 189 -14 b 661 89 518 -14 599 32 l 733 0 l 990 0 l 825 203 z m 419 151 b 265 299 321 151 265 210 b 368 447 265 376 308 417 l 557 218 b 419 151 519 174 472 151 z m 401 753 b 500 858 401 822 444 858 b 588 769 551 858 588 821 b 468 621 588 701 551 660 b 401 753 426 671 401 711 z "},"'":{"ha":333,"x_min":0,"x_max":0,"o":"m 93 626 l 240 626 l 267 993 l 67 993 z "},"(":{"ha":476,"x_min":0,"x_max":0,"o":"m 292 -206 l 457 -206 b 256 435 353 -58 256 146 b 457 1075 256 724 353 929 l 292 1075 b 60 435 176 939 60 732 b 292 -206 60 138 176 -69 z "},")":{"ha":476,"x_min":0,"x_max":0,"o":"m 21 -203 l 186 -203 b 417 438 300 -67 417 140 b 186 1078 417 736 300 942 l 21 1078 b 221 438 124 931 221 726 b 21 -203 221 149 124 -57 z "},"*":{"ha":603,"x_min":0,"x_max":0,"o":"m 215 533 l 300 696 l 386 533 l 510 622 l 389 757 l 556 783 l 514 926 l 358 856 l 383 1032 l 221 1032 l 244 856 l 89 926 l 47 783 l 213 757 l 92 622 z "},"+":{"ha":765,"x_min":0,"x_max":0,"o":"m 301 126 l 465 126 l 465 397 l 715 397 l 715 549 l 465 549 l 465 819 l 301 819 l 301 549 l 51 549 l 51 397 l 301 397 z "},",":{"ha":414,"x_min":0,"x_max":0,"o":"m 154 -171 l 343 153 l 154 224 l 32 -119 z "},"-":{"ha":506,"x_min":0,"x_max":0,"o":"m 75 311 l 431 311 l 431 471 l 75 471 z "},".":{"ha":407,"x_min":0,"x_max":0,"o":"m 203 -12 b 328 110 274 -12 328 42 b 203 231 328 176 274 231 b 79 110 133 231 79 176 b 203 -12 79 42 133 -12 z "},"/":{"ha":588,"x_min":0,"x_max":0,"o":"m -18 -206 l 146 -206 l 574 1078 l 408 1078 z "},":":{"ha":417,"x_min":0,"x_max":0,"o":"m 207 -12 b 332 110 278 -12 332 42 b 207 231 332 176 278 231 b 85 110 138 231 85 176 b 207 -12 85 42 138 -12 z m 207 390 b 332 513 278 390 332 444 b 207 633 332 579 278 633 b 85 513 138 633 85 579 b 207 390 85 444 138 390 z "},";":{"ha":431,"x_min":0,"x_max":0,"o":"m 140 -171 l 329 153 l 142 224 l 19 -119 z m 232 390 b 357 513 303 390 357 444 b 232 633 357 579 303 633 b 110 513 163 633 110 579 b 232 390 110 444 163 390 z "},"<":{"ha":707,"x_min":0,"x_max":0,"o":"m 631 100 l 631 281 l 329 449 l 631 611 l 631 794 l 64 468 l 64 428 z "},"=":{"ha":736,"x_min":0,"x_max":0,"o":"m 54 247 l 682 247 l 682 390 l 54 390 z m 54 511 l 682 511 l 682 656 l 54 656 z "},">":{"ha":707,"x_min":0,"x_max":0,"o":"m 78 101 l 644 428 l 644 468 l 78 796 l 78 615 l 378 447 l 78 285 z "},"?":{"ha":739,"x_min":0,"x_max":0,"o":"m 240 310 l 426 310 l 426 344 b 572 539 435 418 506 475 b 686 757 632 597 686 661 b 378 1007 686 904 582 1007 b 35 700 181 1007 43 893 l 228 700 b 365 843 238 788 289 843 b 472 740 439 843 472 804 b 378 592 472 685 428 640 b 240 351 313 528 240 460 z m 332 -12 b 458 107 401 -12 458 40 b 332 228 458 175 401 228 b 204 107 261 228 204 175 b 332 -12 204 40 261 -12 z "},"@":{"ha":1276,"x_min":0,"x_max":0,"o":"m 639 -214 b 1107 0 847 -214 1024 -128 l 988 0 b 642 -119 913 -69 800 -119 b 163 353 324 -119 163 93 b 663 864 163 661 379 864 b 1121 451 946 864 1121 697 b 967 174 1121 254 1043 174 b 904 272 915 174 894 208 l 949 640 l 776 640 l 767 564 b 608 651 746 611 700 651 b 335 326 457 651 335 519 b 560 75 335 171 424 75 b 754 196 649 75 717 122 b 942 81 771 122 824 81 b 1228 451 1076 81 1228 181 b 661 958 1228 749 992 958 b 49 354 336 958 49 711 b 639 -214 49 46 265 -214 z m 611 211 b 511 333 549 211 511 260 b 638 515 511 444 567 515 b 747 396 708 515 747 474 b 611 211 747 281 682 211 z "},"A":{"ha":1000,"x_min":0,"x_max":0,"o":"m 29 0 l 240 0 l 308 221 l 668 221 l 736 0 l 971 0 l 649 993 l 356 993 z m 489 810 l 619 381 l 357 381 z "},"B":{"ha":915,"x_min":0,"x_max":0,"o":"m 107 0 l 515 0 b 864 278 744 0 864 96 l 864 283 b 665 517 864 417 794 490 b 826 729 776 549 826 625 l 826 735 b 497 993 826 904 714 993 l 107 993 z m 326 156 l 326 440 l 469 440 b 642 301 592 440 642 393 l 642 296 b 481 156 642 206 592 156 z m 326 585 l 326 839 l 460 839 b 613 718 565 839 613 801 l 613 713 b 461 585 613 624 569 585 z "},"C":{"ha":1039,"x_min":0,"x_max":0,"o":"m 554 -15 b 1000 357 799 -15 975 111 l 779 357 b 551 167 761 229 675 167 b 293 492 388 167 293 286 l 293 503 b 550 831 293 708 393 831 b 758 647 675 831 742 767 l 989 647 b 549 1008 965 892 788 1008 b 56 501 267 1008 56 803 l 56 490 b 554 -15 56 185 229 -15 z "},"D":{"ha":1008,"x_min":0,"x_max":0,"o":"m 332 175 l 332 818 l 421 818 b 718 504 631 818 718 708 l 718 493 b 424 175 718 288 624 175 z m 107 0 l 431 0 b 953 496 779 0 953 199 l 953 507 b 432 993 953 804 781 993 l 107 993 z "},"E":{"ha":826,"x_min":0,"x_max":0,"o":"m 107 0 l 776 0 l 776 175 l 331 175 l 331 422 l 669 422 l 669 586 l 331 586 l 331 818 l 754 818 l 754 993 l 107 993 z "},"F":{"ha":788,"x_min":0,"x_max":0,"o":"m 107 0 l 332 0 l 332 385 l 658 385 l 658 554 l 332 554 l 332 817 l 744 817 l 744 993 l 107 993 z "},"G":{"ha":1083,"x_min":0,"x_max":0,"o":"m 561 -15 b 1028 426 858 -15 1028 161 l 1028 532 l 582 532 l 582 368 l 806 368 b 567 158 801 254 733 158 b 290 488 372 158 290 296 l 290 499 b 564 831 290 701 392 831 b 779 661 683 831 760 778 l 1003 661 b 561 1008 979 907 782 1008 b 56 501 268 1008 56 800 l 56 490 b 561 -15 56 196 236 -15 z "},"H":{"ha":1061,"x_min":0,"x_max":0,"o":"m 107 0 l 332 0 l 332 410 l 731 410 l 731 0 l 956 0 l 956 993 l 731 993 l 731 588 l 332 588 l 332 993 l 107 993 z "},"I":{"ha":451,"x_min":0,"x_max":0,"o":"m 113 0 l 339 0 l 339 993 l 113 993 z "},"J":{"ha":635,"x_min":0,"x_max":0,"o":"m 214 -12 b 540 321 418 -12 540 96 l 540 993 l 314 993 l 314 324 b 174 167 314 210 258 167 b 49 190 115 167 82 178 l 49 18 b 214 -12 83 0 128 -12 z "},"K":{"ha":953,"x_min":0,"x_max":0,"o":"m 107 0 l 332 0 l 332 446 l 675 0 l 938 0 l 525 524 l 918 994 l 679 994 l 332 565 l 332 993 l 107 993 z "},"L":{"ha":778,"x_min":0,"x_max":0,"o":"m 107 0 l 736 0 l 736 176 l 332 176 l 332 993 l 107 993 z "},"M":{"ha":1265,"x_min":0,"x_max":0,"o":"m 107 0 l 308 0 l 308 697 l 585 0 l 658 0 l 933 697 l 933 0 l 1157 0 l 1157 993 l 865 993 l 636 375 l 404 993 l 107 993 z "},"N":{"ha":1053,"x_min":0,"x_max":0,"o":"m 107 0 l 307 0 l 307 707 l 721 0 l 946 0 l 946 993 l 746 993 l 746 339 l 368 993 l 107 993 z "},"O":{"ha":1133,"x_min":0,"x_max":0,"o":"m 569 164 b 290 492 407 164 290 289 l 290 503 b 567 829 290 703 394 829 b 843 504 740 829 843 697 l 843 493 b 569 164 843 293 738 164 z m 565 -15 b 1078 496 875 -15 1078 200 l 1078 507 b 567 1007 1078 806 865 1007 b 56 501 272 1007 56 797 l 56 490 b 565 -15 56 200 254 -15 z "},"P":{"ha":869,"x_min":0,"x_max":0,"o":"m 107 0 l 331 0 l 331 361 l 457 361 b 829 671 683 361 829 461 l 829 676 b 450 993 829 886 692 993 l 107 993 z m 331 518 l 331 822 l 444 822 b 613 675 551 822 613 781 l 613 669 b 444 518 613 571 554 518 z "},"Q":{"ha":1133,"x_min":0,"x_max":0,"o":"m 888 -129 l 1015 -3 l 914 106 b 1078 496 1018 197 1078 335 l 1078 507 b 567 1007 1078 804 865 1007 b 56 501 272 1007 56 797 l 56 490 b 565 -15 56 199 254 -15 b 753 14 633 -15 696 -4 z m 569 158 b 290 492 406 158 290 282 l 290 503 b 567 829 290 704 394 829 b 843 504 740 829 843 697 l 843 493 b 775 254 843 393 818 313 l 653 386 l 522 264 l 617 161 b 569 158 601 160 586 158 z "},"R":{"ha":933,"x_min":0,"x_max":0,"o":"m 107 0 l 331 0 l 331 383 l 428 383 l 665 0 l 904 0 l 642 422 b 846 686 758 457 846 536 l 846 692 b 463 993 846 897 697 993 l 107 993 z m 331 536 l 331 821 l 457 821 b 626 685 565 821 626 786 l 626 679 b 457 536 626 583 569 536 z "},"S":{"ha":889,"x_min":0,"x_max":0,"o":"m 454 -15 b 833 301 689 -15 833 125 b 469 603 833 507 710 572 b 285 729 317 625 285 658 b 433 842 285 796 335 842 b 599 710 532 842 585 800 l 806 710 b 433 1007 788 907 657 1007 b 72 711 214 1007 72 881 b 431 410 72 519 176 443 b 618 281 576 388 618 360 b 454 149 618 203 553 149 b 260 311 307 149 269 222 l 44 311 b 454 -15 57 113 182 -15 z "},"T":{"ha":829,"x_min":0,"x_max":0,"o":"m 301 0 l 528 0 l 528 818 l 796 818 l 796 993 l 33 993 l 33 818 l 301 818 z "},"U":{"ha":1026,"x_min":0,"x_max":0,"o":"m 508 -15 b 928 396 776 -15 928 125 l 928 993 l 701 993 l 701 410 b 510 164 701 228 643 164 b 325 401 374 164 325 236 l 325 993 l 99 993 l 99 388 b 508 -15 99 124 247 -15 z "},"V":{"ha":974,"x_min":0,"x_max":0,"o":"m 358 0 l 617 0 l 947 993 l 736 993 l 500 231 l 264 993 l 26 993 z "},"W":{"ha":1349,"x_min":0,"x_max":0,"o":"m 271 0 l 488 0 l 669 686 l 849 0 l 1078 0 l 1319 993 l 1111 993 l 950 303 l 774 993 l 582 993 l 413 307 l 257 993 l 29 993 z "},"X":{"ha":999,"x_min":0,"x_max":0,"o":"m 42 0 l 272 0 l 486 369 l 701 0 l 957 0 l 643 517 l 926 993 l 696 993 l 508 663 l 319 993 l 65 993 l 357 510 z "},"Y":{"ha":900,"x_min":0,"x_max":0,"o":"m 346 0 l 572 0 l 572 428 l 882 993 l 664 993 l 467 613 l 265 993 l 18 993 l 346 428 z "},"Z":{"ha":854,"x_min":0,"x_max":0,"o":"m 25 0 l 800 0 l 800 176 l 353 176 l 817 967 l 817 993 l 78 993 l 78 818 l 499 818 l 25 28 z "},"[":{"ha":542,"x_min":0,"x_max":0,"o":"m 103 -206 l 486 -206 l 486 -57 l 304 -57 l 304 929 l 486 929 l 486 1078 l 103 1078 z "},"\\":{"ha":588,"x_min":0,"x_max":0,"o":"m 442 -206 l 606 -206 l 178 1078 l 14 1078 z "},"]":{"ha":542,"x_min":0,"x_max":0,"o":"m 57 -206 l 439 -206 l 439 1078 l 57 1078 l 57 929 l 238 929 l 238 -57 l 57 -57 z "},"^":{"ha":725,"x_min":0,"x_max":0,"o":"m 43 554 l 217 554 l 361 829 l 504 554 l 683 554 l 453 993 l 272 993 z "},"_":{"ha":582,"x_min":0,"x_max":0,"o":"m -1 -222 l 583 -222 l 583 -112 l -1 -112 z "},"`":{"ha":556,"x_min":0,"x_max":0,"o":"m 215 825 l 361 825 l 282 1046 l 71 1046 z "},"a":{"ha":783,"x_min":0,"x_max":0,"o":"m 285 -15 b 504 88 399 -15 463 29 l 504 0 l 700 0 l 700 474 b 396 743 700 671 574 743 b 69 494 218 743 82 667 l 260 494 b 383 597 268 557 304 597 b 501 464 475 597 501 550 l 501 435 l 419 435 b 42 201 197 435 42 371 b 285 -15 42 49 153 -15 z m 344 125 b 239 213 271 125 239 160 b 424 315 239 290 307 315 l 501 315 l 501 254 b 344 125 501 174 433 125 z "},"b":{"ha":885,"x_min":0,"x_max":0,"o":"m 522 -15 b 839 360 703 -15 839 119 l 839 371 b 522 743 839 611 700 743 b 290 613 415 743 331 682 l 290 1056 l 89 1056 l 89 0 l 290 0 l 290 115 b 522 -15 328 40 410 -15 z m 463 142 b 283 358 353 142 283 213 l 283 369 b 461 589 283 515 356 589 b 635 369 563 589 635 517 l 635 358 b 463 142 635 217 574 142 z "},"c":{"ha":803,"x_min":0,"x_max":0,"o":"m 418 -15 b 765 276 629 -15 754 104 l 583 276 b 428 136 574 183 508 136 b 250 357 315 136 250 211 l 250 368 b 424 585 250 507 319 585 b 571 461 506 585 557 546 l 761 461 b 419 743 743 669 588 743 b 44 365 213 743 44 600 l 44 354 b 418 -15 44 117 206 -15 z "},"d":{"ha":885,"x_min":0,"x_max":0,"o":"m 361 -15 b 594 121 468 -15 557 47 l 594 0 l 794 0 l 794 1056 l 594 1056 l 594 618 b 365 743 554 692 482 743 b 46 364 183 743 46 603 l 46 353 b 361 -15 46 111 185 -15 z m 421 142 b 251 357 321 142 251 213 l 251 368 b 426 589 251 513 314 589 b 600 371 536 589 600 515 l 600 360 b 421 142 600 213 526 142 z "},"e":{"ha":815,"x_min":0,"x_max":0,"o":"m 424 -15 b 771 229 622 -15 747 72 l 581 229 b 429 128 568 168 522 128 b 249 318 319 128 254 197 l 772 318 l 772 374 b 418 743 772 633 606 743 b 44 365 207 743 44 594 l 44 354 b 424 -15 44 122 204 -15 z m 251 442 b 418 604 267 544 328 604 b 576 442 514 604 569 551 z "},"f":{"ha":515,"x_min":0,"x_max":0,"o":"m 122 0 l 322 0 l 322 583 l 481 583 l 481 726 l 322 726 l 322 815 b 413 911 322 871 349 911 b 486 899 442 911 467 906 l 486 1050 b 382 1064 454 1060 425 1064 b 122 810 221 1064 122 979 l 122 726 l 26 726 l 26 583 l 122 583 z "},"g":{"ha":883,"x_min":0,"x_max":0,"o":"m 411 -268 b 794 57 650 -268 793 -158 l 794 726 l 594 726 l 594 618 b 364 743 553 692 482 743 b 44 389 183 743 44 597 l 44 379 b 361 32 44 164 185 32 b 594 167 468 32 554 96 l 594 57 b 411 -121 594 -57 533 -121 b 250 -15 308 -121 263 -79 l 50 -15 b 411 -268 69 -165 176 -268 z m 421 183 b 250 379 321 183 250 258 l 250 390 b 425 590 250 510 313 590 b 600 392 535 590 600 515 l 600 382 b 421 183 600 258 526 183 z "},"h":{"ha":854,"x_min":0,"x_max":0,"o":"m 89 0 l 290 0 l 290 419 b 442 579 290 526 356 579 b 569 433 531 579 569 532 l 569 0 l 771 0 l 771 463 b 526 743 771 657 669 743 b 290 611 406 743 326 683 l 290 1056 l 89 1056 z "},"i":{"ha":390,"x_min":0,"x_max":0,"o":"m 94 0 l 294 0 l 294 726 l 94 726 z m 193 825 b 308 935 258 825 308 872 b 193 1044 308 997 258 1044 b 79 935 129 1044 79 997 b 193 825 79 872 129 825 z "},"j":{"ha":390,"x_min":0,"x_max":0,"o":"m -1 -260 b 294 -12 225 -257 294 -164 l 294 726 l 94 726 l 94 -14 b -1 -110 94 -72 68 -104 z m 193 825 b 308 935 258 825 308 872 b 193 1044 308 997 258 1044 b 79 935 129 1044 79 997 b 193 825 79 872 129 825 z "},"k":{"ha":771,"x_min":0,"x_max":0,"o":"m 89 0 l 290 0 l 290 343 l 531 0 l 758 0 l 474 396 l 738 726 l 524 726 l 290 419 l 290 1056 l 89 1056 z "},"l":{"ha":389,"x_min":0,"x_max":0,"o":"m 94 0 l 294 0 l 294 1056 l 94 1056 z "},"m":{"ha":1282,"x_min":0,"x_max":0,"o":"m 89 0 l 290 0 l 290 429 b 431 578 290 528 353 578 b 544 443 501 578 544 536 l 544 0 l 744 0 l 744 429 b 885 578 744 528 807 578 b 999 443 957 578 999 536 l 999 0 l 1199 0 l 1199 465 b 960 743 1199 658 1094 743 b 715 617 868 743 774 704 b 513 743 681 703 608 743 b 290 615 404 743 326 683 l 290 726 l 89 726 z "},"n":{"ha":854,"x_min":0,"x_max":0,"o":"m 89 0 l 290 0 l 290 419 b 442 579 290 526 356 579 b 569 433 531 579 569 532 l 569 0 l 771 0 l 771 463 b 526 743 771 657 669 743 b 290 611 406 743 326 683 l 290 726 l 89 726 z "},"o":{"ha":856,"x_min":0,"x_max":0,"o":"m 428 138 b 250 360 314 138 250 221 l 250 371 b 428 590 250 510 317 590 b 606 368 540 590 606 507 l 606 358 b 428 138 606 221 540 138 z m 426 -15 b 810 360 644 -15 810 131 l 810 371 b 428 743 810 597 646 743 b 44 367 210 743 44 594 l 44 356 b 426 -15 44 129 210 -15 z "},"p":{"ha":885,"x_min":0,"x_max":0,"o":"m 89 -247 l 290 -247 l 290 111 b 522 -15 328 40 410 -15 b 839 360 703 -15 839 119 l 839 371 b 522 743 839 611 700 743 b 290 613 415 743 331 682 l 290 726 l 89 726 z m 463 142 b 283 358 353 142 283 213 l 283 369 b 461 589 283 515 356 589 b 635 369 563 589 635 517 l 635 358 b 463 142 635 217 574 142 z "},"q":{"ha":885,"x_min":0,"x_max":0,"o":"m 594 -247 l 794 -247 l 794 726 l 594 726 l 594 618 b 365 743 554 692 482 743 b 46 364 183 743 46 603 l 46 353 b 361 -15 46 111 185 -15 b 594 117 468 -15 557 47 z m 421 142 b 251 357 321 142 251 213 l 251 368 b 426 589 251 513 314 589 b 600 371 536 589 600 515 l 600 360 b 421 142 600 213 526 142 z "},"r":{"ha":568,"x_min":0,"x_max":0,"o":"m 89 0 l 290 0 l 290 364 b 525 550 290 503 376 551 l 525 738 b 290 588 407 736 336 685 l 290 726 l 89 726 z "},"s":{"ha":697,"x_min":0,"x_max":0,"o":"m 353 -15 b 658 224 544 -15 658 67 b 376 451 658 379 558 425 b 236 531 271 467 236 485 b 339 606 236 575 274 606 b 453 518 408 606 442 578 l 638 518 b 338 743 619 685 499 743 b 50 517 189 743 50 668 b 318 290 50 375 125 319 b 465 204 422 275 465 254 b 351 125 465 154 429 125 b 224 228 264 125 232 163 l 36 228 b 353 -15 43 71 157 -15 z "},"t":{"ha":524,"x_min":0,"x_max":0,"o":"m 354 -14 b 476 6 408 -14 449 -4 l 476 161 b 400 147 453 151 431 147 b 319 233 349 147 319 175 l 319 583 l 472 583 l 472 726 l 319 726 l 319 883 l 119 883 l 119 726 l 26 726 l 26 583 l 119 583 l 119 215 b 354 -14 119 64 201 -14 z "},"u":{"ha":850,"x_min":0,"x_max":0,"o":"m 331 -15 b 561 114 450 -15 524 40 l 561 0 l 761 0 l 761 726 l 561 726 l 561 300 b 410 140 561 193 494 140 b 283 286 324 140 283 188 l 283 726 l 83 726 l 83 258 b 331 -15 83 68 189 -15 z "},"v":{"ha":794,"x_min":0,"x_max":0,"o":"m 285 0 l 511 0 l 775 726 l 581 726 l 408 207 l 235 726 l 19 726 z "},"w":{"ha":1147,"x_min":0,"x_max":0,"o":"m 243 0 l 443 0 l 576 456 l 700 0 l 897 0 l 1126 726 l 933 726 l 796 238 l 668 726 l 503 726 l 363 238 l 233 726 l 22 726 z "},"x":{"ha":797,"x_min":0,"x_max":0,"o":"m 24 0 l 231 0 l 388 244 l 540 0 l 772 0 l 517 386 l 749 726 l 540 726 l 407 508 l 271 726 l 40 726 l 272 371 z "},"y":{"ha":788,"x_min":0,"x_max":0,"o":"m 181 -247 l 375 -247 l 768 726 l 575 726 l 413 290 l 236 726 l 19 726 l 308 74 z "},"z":{"ha":693,"x_min":0,"x_max":0,"o":"m 19 0 l 656 0 l 656 156 l 308 156 l 669 701 l 669 726 l 56 726 l 56 571 l 378 571 l 19 22 z "},"{":{"ha":563,"x_min":0,"x_max":0,"o":"m 506 -204 l 506 -58 b 367 104 389 -54 349 -17 l 388 251 b 247 439 401 350 346 417 b 388 626 344 463 401 529 l 367 775 b 506 933 349 894 389 929 l 506 1081 b 171 771 253 1081 132 994 l 193 644 b 47 510 206 572 168 510 l 47 367 b 193 232 168 367 206 304 l 171 104 b 506 -204 133 -114 253 -204 z "},"|":{"ha":364,"x_min":0,"x_max":0,"o":"m 110 -206 l 254 -206 l 254 1078 l 110 1078 z "},"}":{"ha":563,"x_min":0,"x_max":0,"o":"m 56 -204 b 392 104 308 -204 429 -114 l 369 232 b 514 367 357 304 394 367 l 514 510 b 369 644 394 510 357 572 l 392 771 b 56 1081 429 994 308 1081 l 56 933 b 196 775 174 929 213 894 l 175 626 b 315 439 161 529 217 463 b 175 251 217 417 161 350 l 196 104 b 56 -58 213 -17 174 -54 z "},"~":{"ha":683,"x_min":0,"x_max":0,"o":"m 47 303 l 183 303 b 246 369 189 344 211 369 b 454 304 294 369 354 304 b 636 544 542 304 629 382 l 500 544 b 438 476 494 500 471 476 b 231 542 390 476 328 542 b 47 303 142 542 57 472 z "},"Ä":{"ha":1000,"x_min":0,"x_max":0,"o":"m 29 0 l 240 0 l 308 221 l 668 221 l 736 0 l 971 0 l 649 993 l 356 993 z m 489 810 l 619 381 l 357 381 z m 349 1068 b 451 1169 404 1068 451 1114 b 349 1269 451 1225 404 1269 b 246 1169 292 1269 246 1225 b 349 1068 246 1114 292 1068 z m 647 1068 b 750 1169 704 1068 750 1114 b 647 1269 750 1225 704 1269 b 546 1169 592 1269 546 1225 b 647 1068 546 1114 592 1068 z "},"Å":{"ha":1000,"x_min":0,"x_max":0,"o":"m 29 0 l 240 0 l 308 221 l 668 221 l 736 0 l 971 0 l 649 993 l 356 993 z m 499 1042 b 658 1196 586 1042 658 1111 b 499 1351 658 1282 586 1351 b 339 1196 411 1351 339 1282 b 499 1042 339 1111 411 1042 z m 489 810 l 619 381 l 357 381 z m 499 1122 b 431 1196 458 1122 431 1153 b 499 1271 431 1239 458 1271 b 567 1196 538 1271 567 1239 b 499 1122 567 1153 538 1122 z "},"Ç":{"ha":1039,"x_min":0,"x_max":0,"o":"m 526 -308 b 685 -183 618 -308 685 -264 b 540 -67 685 -96 614 -58 l 571 -15 b 1000 357 807 -8 975 117 l 779 357 b 551 167 761 229 675 167 b 293 492 388 167 293 286 l 293 503 b 550 831 293 708 393 831 b 758 647 675 831 742 767 l 989 647 b 549 1008 965 892 788 1008 b 56 501 267 1008 56 803 l 56 490 b 483 -11 56 207 204 15 l 428 -103 l 478 -151 b 521 -137 486 -144 500 -137 b 568 -181 550 -137 568 -156 b 519 -226 568 -207 550 -226 b 467 -183 488 -226 471 -206 l 364 -183 b 526 -308 374 -261 433 -308 z "},"É":{"ha":826,"x_min":0,"x_max":0,"o":"m 354 1060 l 506 1060 l 646 1253 l 428 1253 z m 107 0 l 776 0 l 776 175 l 331 175 l 331 422 l 669 422 l 669 586 l 331 586 l 331 818 l 754 818 l 754 993 l 107 993 z "},"Ñ":{"ha":1053,"x_min":0,"x_max":0,"o":"m 632 1061 b 792 1254 711 1061 781 1126 l 671 1254 b 624 1203 665 1225 649 1203 b 463 1256 579 1203 531 1256 b 304 1061 381 1256 314 1189 l 424 1061 b 472 1113 429 1090 447 1113 b 632 1061 513 1113 560 1061 z m 107 0 l 307 0 l 307 707 l 721 0 l 946 0 l 946 993 l 746 993 l 746 339 l 368 993 l 107 993 z "},"Ö":{"ha":1133,"x_min":0,"x_max":0,"o":"m 415 1068 b 518 1169 471 1068 518 1114 b 415 1269 518 1225 471 1269 b 313 1169 358 1269 313 1225 b 415 1068 313 1114 358 1068 z m 714 1068 b 817 1169 771 1068 817 1114 b 714 1269 817 1225 771 1269 b 613 1169 658 1269 613 1225 b 714 1068 613 1114 658 1068 z m 569 164 b 290 492 407 164 290 289 l 290 503 b 567 829 290 703 394 829 b 843 504 740 829 843 697 l 843 493 b 569 164 843 293 738 164 z m 565 -15 b 1078 496 875 -15 1078 200 l 1078 507 b 567 1007 1078 806 865 1007 b 56 501 272 1007 56 797 l 56 490 b 565 -15 56 200 254 -15 z "},"Ü":{"ha":1026,"x_min":0,"x_max":0,"o":"m 508 -15 b 928 396 776 -15 928 125 l 928 993 l 701 993 l 701 410 b 510 164 701 228 643 164 b 325 401 374 164 325 236 l 325 993 l 99 993 l 99 388 b 508 -15 99 124 247 -15 z m 361 1068 b 464 1169 417 1068 464 1114 b 361 1269 464 1225 417 1269 b 258 1169 304 1269 258 1225 b 361 1068 258 1114 304 1068 z m 660 1068 b 763 1169 717 1068 763 1114 b 660 1269 763 1225 717 1269 b 558 1169 604 1269 558 1225 b 660 1068 558 1114 604 1068 z "},"á":{"ha":783,"x_min":0,"x_max":0,"o":"m 285 -15 b 504 88 399 -15 463 29 l 504 0 l 700 0 l 700 474 b 396 743 700 671 574 743 b 69 494 218 743 82 667 l 260 494 b 383 597 268 557 304 597 b 501 464 475 597 501 550 l 501 435 l 419 435 b 42 201 197 435 42 371 b 285 -15 42 49 153 -15 z m 344 125 b 239 213 271 125 239 160 b 424 315 239 290 307 315 l 501 315 l 501 254 b 344 125 501 174 433 125 z m 314 825 l 460 825 l 604 1046 l 393 1046 z "},"à":{"ha":783,"x_min":0,"x_max":0,"o":"m 285 -15 b 504 88 399 -15 463 29 l 504 0 l 700 0 l 700 474 b 396 743 700 671 574 743 b 69 494 218 743 82 667 l 260 494 b 383 597 268 557 304 597 b 501 464 475 597 501 550 l 501 435 l 419 435 b 42 201 197 435 42 371 b 285 -15 42 49 153 -15 z m 344 125 b 239 213 271 125 239 160 b 424 315 239 290 307 315 l 501 315 l 501 254 b 344 125 501 174 433 125 z m 329 825 l 475 825 l 396 1046 l 185 1046 z "},"â":{"ha":783,"x_min":0,"x_max":0,"o":"m 285 -15 b 504 88 399 -15 463 29 l 504 0 l 700 0 l 700 474 b 396 743 700 671 574 743 b 69 494 218 743 82 667 l 260 494 b 383 597 268 557 304 597 b 501 464 475 597 501 550 l 501 435 l 419 435 b 42 201 197 435 42 371 b 285 -15 42 49 153 -15 z m 344 125 b 239 213 271 125 239 160 b 424 315 239 290 307 315 l 501 315 l 501 254 b 344 125 501 174 433 125 z m 149 826 l 286 826 l 383 914 l 479 826 l 621 826 l 463 1043 l 311 1043 z "},"ä":{"ha":783,"x_min":0,"x_max":0,"o":"m 285 -15 b 504 88 399 -15 463 29 l 504 0 l 700 0 l 700 474 b 396 743 700 671 574 743 b 69 494 218 743 82 667 l 260 494 b 383 597 268 557 304 597 b 501 464 475 597 501 550 l 501 435 l 419 435 b 42 201 197 435 42 371 b 285 -15 42 49 153 -15 z m 344 125 b 239 213 271 125 239 160 b 424 315 239 290 307 315 l 501 315 l 501 254 b 344 125 501 174 433 125 z m 253 833 b 356 933 310 833 356 878 b 253 1033 356 989 310 1033 b 150 933 196 1033 150 989 b 253 833 150 878 196 833 z m 536 833 b 639 933 593 833 639 878 b 536 1033 639 989 593 1033 b 433 933 479 1033 433 989 b 536 833 433 878 479 833 z "},"ã":{"ha":783,"x_min":0,"x_max":0,"o":"m 285 -15 b 504 88 399 -15 463 29 l 504 0 l 700 0 l 700 474 b 396 743 700 671 574 743 b 69 494 218 743 82 667 l 260 494 b 383 597 268 557 304 597 b 501 464 475 597 501 550 l 501 435 l 419 435 b 42 201 197 435 42 371 b 285 -15 42 49 153 -15 z m 344 125 b 239 213 271 125 239 160 b 424 315 239 290 307 315 l 501 315 l 501 254 b 344 125 501 174 433 125 z m 478 831 b 633 1028 557 831 622 899 l 517 1028 b 469 976 511 997 494 976 b 310 1028 425 976 378 1028 b 157 832 228 1028 167 960 l 272 832 b 321 883 278 861 297 883 b 478 831 363 883 407 831 z "},"å":{"ha":783,"x_min":0,"x_max":0,"o":"m 285 -15 b 504 88 399 -15 463 29 l 504 0 l 700 0 l 700 474 b 396 743 700 671 574 743 b 69 494 218 743 82 667 l 260 494 b 383 597 268 557 304 597 b 501 464 475 597 501 550 l 501 435 l 419 435 b 42 201 197 435 42 371 b 285 -15 42 49 153 -15 z m 344 125 b 239 213 271 125 239 160 b 424 315 239 290 307 315 l 501 315 l 501 254 b 344 125 501 174 433 125 z m 394 893 b 328 967 356 893 328 924 b 394 1040 328 1008 356 1040 b 461 967 433 1040 461 1008 b 394 893 461 924 433 893 z m 394 813 b 553 967 482 813 553 882 b 394 1119 553 1050 482 1119 b 236 967 307 1119 236 1050 b 394 813 236 882 307 813 z "},"ç":{"ha":803,"x_min":0,"x_max":0,"o":"m 392 -308 b 550 -183 483 -308 550 -264 b 406 -67 550 -96 479 -58 l 436 -15 b 765 276 636 -8 754 108 l 583 276 b 428 136 574 183 508 136 b 250 357 315 136 250 211 l 250 368 b 424 585 250 507 319 585 b 571 461 506 585 557 546 l 761 461 b 419 743 743 669 588 743 b 44 365 213 743 44 600 l 44 354 b 349 -10 44 143 171 15 l 293 -103 l 343 -151 b 386 -137 351 -144 365 -137 b 433 -181 415 -137 433 -156 b 385 -226 433 -207 415 -226 b 332 -183 353 -226 336 -206 l 229 -183 b 392 -308 239 -261 299 -308 z "},"é":{"ha":815,"x_min":0,"x_max":0,"o":"m 333 825 l 479 825 l 624 1046 l 413 1046 z m 424 -15 b 771 229 622 -15 747 72 l 581 229 b 429 128 568 168 522 128 b 249 318 319 128 254 197 l 772 318 l 772 374 b 418 743 772 633 606 743 b 44 365 207 743 44 594 l 44 354 b 424 -15 44 122 204 -15 z m 251 442 b 418 604 267 544 328 604 b 576 442 514 604 569 551 z "},"è":{"ha":815,"x_min":0,"x_max":0,"o":"m 424 -15 b 771 229 622 -15 747 72 l 581 229 b 429 128 568 168 522 128 b 249 318 319 128 254 197 l 772 318 l 772 374 b 418 743 772 633 606 743 b 44 365 207 743 44 594 l 44 354 b 424 -15 44 122 204 -15 z m 251 442 b 418 604 267 544 328 604 b 576 442 514 604 569 551 z m 349 825 l 494 825 l 415 1046 l 204 1046 z "},"ê":{"ha":815,"x_min":0,"x_max":0,"o":"m 178 826 l 315 826 l 413 914 l 508 826 l 650 826 l 492 1043 l 340 1043 z m 424 -15 b 771 229 622 -15 747 72 l 581 229 b 429 128 568 168 522 128 b 249 318 319 128 254 197 l 772 318 l 772 374 b 418 743 772 633 606 743 b 44 365 207 743 44 594 l 44 354 b 424 -15 44 122 204 -15 z m 251 442 b 418 604 267 544 328 604 b 576 442 514 604 569 551 z "},"ë":{"ha":815,"x_min":0,"x_max":0,"o":"m 272 833 b 375 933 329 833 375 878 b 272 1033 375 989 329 1033 b 169 933 215 1033 169 989 b 272 833 169 878 215 833 z m 556 833 b 658 933 613 833 658 878 b 556 1033 658 989 613 1033 b 453 933 499 1033 453 989 b 556 833 453 878 499 833 z m 424 -15 b 771 229 622 -15 747 72 l 581 229 b 429 128 568 168 522 128 b 249 318 319 128 254 197 l 772 318 l 772 374 b 418 743 772 633 606 743 b 44 365 207 743 44 594 l 44 354 b 424 -15 44 122 204 -15 z m 251 442 b 418 604 267 544 328 604 b 576 442 514 604 569 551 z "},"í":{"ha":390,"x_min":0,"x_max":0,"o":"m 115 825 l 261 825 l 406 1046 l 194 1046 z m 94 0 l 294 0 l 294 726 l 94 726 z "},"ì":{"ha":390,"x_min":0,"x_max":0,"o":"m 94 0 l 294 0 l 294 726 l 94 726 z m 131 825 l 276 825 l 197 1046 l -14 1046 z "},"î":{"ha":390,"x_min":0,"x_max":0,"o":"m -40 826 l 97 826 l 194 914 l 290 826 l 432 826 l 274 1043 l 122 1043 z m 94 0 l 294 0 l 294 726 l 94 726 z "},"ï":{"ha":390,"x_min":0,"x_max":0,"o":"m 56 833 b 158 933 113 833 158 878 b 56 1033 158 989 113 1033 b -46 933 0 1033 -46 989 b 56 833 -46 878 0 833 z m 332 833 b 435 933 389 833 435 878 b 332 1033 435 989 389 1033 b 231 933 276 1033 231 989 b 332 833 231 878 276 833 z m 94 0 l 294 0 l 294 726 l 94 726 z "},"ñ":{"ha":854,"x_min":0,"x_max":0,"o":"m 89 0 l 290 0 l 290 419 b 442 579 290 526 356 579 b 569 433 531 579 569 532 l 569 0 l 771 0 l 771 463 b 526 743 771 657 669 743 b 290 611 406 743 326 683 l 290 726 l 89 726 z m 510 831 b 665 1028 589 831 654 899 l 549 1028 b 501 976 543 997 526 976 b 342 1028 457 976 410 1028 b 189 832 260 1028 199 960 l 304 832 b 353 883 310 861 329 883 b 510 831 394 883 439 831 z "},"ó":{"ha":856,"x_min":0,"x_max":0,"o":"m 346 825 l 492 825 l 636 1046 l 425 1046 z m 428 138 b 250 360 314 138 250 221 l 250 371 b 428 590 250 510 317 590 b 606 368 540 590 606 507 l 606 358 b 428 138 606 221 540 138 z m 426 -15 b 810 360 644 -15 810 131 l 810 371 b 428 743 810 597 646 743 b 44 367 210 743 44 594 l 44 356 b 426 -15 44 129 210 -15 z "},"ò":{"ha":856,"x_min":0,"x_max":0,"o":"m 428 138 b 250 360 314 138 250 221 l 250 371 b 428 590 250 510 317 590 b 606 368 540 590 606 507 l 606 358 b 428 138 606 221 540 138 z m 426 -15 b 810 360 644 -15 810 131 l 810 371 b 428 743 810 597 646 743 b 44 367 210 743 44 594 l 44 356 b 426 -15 44 129 210 -15 z m 361 825 l 507 825 l 428 1046 l 217 1046 z "},"ô":{"ha":856,"x_min":0,"x_max":0,"o":"m 190 826 l 328 826 l 425 914 l 521 826 l 663 826 l 504 1043 l 353 1043 z m 428 138 b 250 360 314 138 250 221 l 250 371 b 428 590 250 510 317 590 b 606 368 540 590 606 507 l 606 358 b 428 138 606 221 540 138 z m 426 -15 b 810 360 644 -15 810 131 l 810 371 b 428 743 810 597 646 743 b 44 367 210 743 44 594 l 44 356 b 426 -15 44 129 210 -15 z "},"ö":{"ha":856,"x_min":0,"x_max":0,"o":"m 285 833 b 388 933 342 833 388 878 b 285 1033 388 989 342 1033 b 182 933 228 1033 182 989 b 285 833 182 878 228 833 z m 568 833 b 671 933 625 833 671 878 b 568 1033 671 989 625 1033 b 465 933 511 1033 465 989 b 568 833 465 878 511 833 z m 428 138 b 250 360 314 138 250 221 l 250 371 b 428 590 250 510 317 590 b 606 368 540 590 606 507 l 606 358 b 428 138 606 221 540 138 z m 426 -15 b 810 360 644 -15 810 131 l 810 371 b 428 743 810 597 646 743 b 44 367 210 743 44 594 l 44 356 b 426 -15 44 129 210 -15 z "},"õ":{"ha":856,"x_min":0,"x_max":0,"o":"m 428 138 b 250 360 314 138 250 221 l 250 371 b 428 590 250 510 317 590 b 606 368 540 590 606 507 l 606 358 b 428 138 606 221 540 138 z m 426 -15 b 810 360 644 -15 810 131 l 810 371 b 428 743 810 597 646 743 b 44 367 210 743 44 594 l 44 356 b 426 -15 44 129 210 -15 z m 510 831 b 665 1028 589 831 654 899 l 549 1028 b 501 976 543 997 526 976 b 342 1028 457 976 410 1028 b 189 832 260 1028 199 960 l 304 832 b 353 883 310 861 329 883 b 510 831 394 883 439 831 z "},"ú":{"ha":850,"x_min":0,"x_max":0,"o":"m 343 825 l 489 825 l 633 1046 l 422 1046 z m 331 -15 b 561 114 450 -15 524 40 l 561 0 l 761 0 l 761 726 l 561 726 l 561 300 b 410 140 561 193 494 140 b 283 286 324 140 283 188 l 283 726 l 83 726 l 83 258 b 331 -15 83 68 189 -15 z "},"ù":{"ha":850,"x_min":0,"x_max":0,"o":"m 331 -15 b 561 114 450 -15 524 40 l 561 0 l 761 0 l 761 726 l 561 726 l 561 300 b 410 140 561 193 494 140 b 283 286 324 140 283 188 l 283 726 l 83 726 l 83 258 b 331 -15 83 68 189 -15 z m 358 825 l 504 825 l 425 1046 l 214 1046 z "},"û":{"ha":850,"x_min":0,"x_max":0,"o":"m 188 826 l 325 826 l 422 914 l 518 826 l 660 826 l 501 1043 l 350 1043 z m 331 -15 b 561 114 450 -15 524 40 l 561 0 l 761 0 l 761 726 l 561 726 l 561 300 b 410 140 561 193 494 140 b 283 286 324 140 283 188 l 283 726 l 83 726 l 83 258 b 331 -15 83 68 189 -15 z "},"ü":{"ha":850,"x_min":0,"x_max":0,"o":"m 282 833 b 385 933 339 833 385 878 b 282 1033 385 989 339 1033 b 179 933 225 1033 179 989 b 282 833 179 878 225 833 z m 565 833 b 668 933 622 833 668 878 b 565 1033 668 989 622 1033 b 463 933 508 1033 463 989 b 565 833 463 878 508 833 z m 331 -15 b 561 114 450 -15 524 40 l 561 0 l 761 0 l 761 726 l 561 726 l 561 300 b 410 140 561 193 494 140 b 283 286 324 140 283 188 l 283 726 l 83 726 l 83 258 b 331 -15 83 68 189 -15 z "},"†":{"ha":547,"x_min":0,"x_max":0,"o":"m 190 296 l 357 296 l 357 679 l 508 679 l 508 825 l 357 825 l 357 993 l 190 993 l 190 825 l 38 825 l 38 679 l 190 679 z "},"°":{"ha":615,"x_min":0,"x_max":0,"o":"m 308 633 b 179 772 233 633 179 694 b 308 914 179 853 233 914 b 433 772 382 914 433 853 b 308 633 433 694 382 633 z m 308 542 b 546 772 440 542 546 647 b 308 1006 546 900 440 1006 b 69 772 176 1006 69 900 b 308 542 69 647 176 542 z "},"¢":{"ha":811,"x_min":0,"x_max":0,"o":"m 378 -187 l 476 -187 l 476 -12 b 778 276 654 4 767 117 l 600 276 b 476 132 592 194 542 147 l 476 588 b 586 461 535 574 576 533 l 774 461 b 476 740 757 643 629 728 l 476 874 l 378 874 l 378 740 b 44 365 189 718 44 581 l 44 354 b 378 -12 44 135 185 6 z m 244 357 l 244 368 b 378 586 244 488 297 564 l 378 135 b 244 357 294 157 244 232 z "},"£":{"ha":882,"x_min":0,"x_max":0,"o":"m 54 413 l 175 413 b 194 297 186 374 194 336 b 182 218 194 265 189 240 b 35 0 88 186 42 92 l 206 0 b 282 65 210 35 232 65 b 579 -12 353 65 446 -12 b 840 261 743 -12 832 104 l 640 261 b 539 165 636 192 599 165 b 371 213 493 165 438 193 b 388 297 381 238 388 265 b 378 413 388 338 383 376 l 615 413 l 615 550 l 350 550 b 336 690 342 594 336 640 b 472 835 336 778 392 835 b 610 699 557 835 594 789 l 817 699 b 467 1007 806 883 694 1007 b 113 700 267 1007 113 892 b 133 550 113 643 121 594 l 54 550 z "},"§":{"ha":808,"x_min":0,"x_max":0,"o":"m 393 -190 b 686 53 563 -190 686 -89 b 617 218 686 125 663 178 b 768 408 710 253 768 321 b 471 667 768 572 644 625 b 311 776 342 699 311 721 b 413 863 311 825 343 863 b 517 765 485 863 511 826 l 701 765 b 415 1007 696 917 592 1007 b 122 761 251 1007 122 910 b 193 594 122 689 146 636 b 40 406 100 564 40 499 b 332 147 40 251 156 190 b 497 38 463 115 497 92 b 394 -49 497 -12 465 -49 b 289 54 322 -49 293 -8 l 101 54 b 393 -190 107 -99 214 -190 z m 490 292 l 388 324 b 235 431 285 354 235 376 b 318 521 235 478 265 511 l 424 489 b 574 381 525 458 574 440 b 490 292 574 336 549 306 z "},"•":{"ha":496,"x_min":0,"x_max":0,"o":"m 249 235 b 436 422 357 235 436 318 b 249 610 436 526 357 610 b 60 422 142 610 60 526 b 249 235 60 318 142 235 z "},"¶":{"ha":783,"x_min":0,"x_max":0,"o":"m 365 -139 l 467 -139 l 467 908 l 572 908 l 572 -139 l 675 -139 l 675 993 l 351 993 b 47 725 175 993 47 906 b 351 465 47 551 169 465 l 365 465 z "},"ß":{"ha":860,"x_min":0,"x_max":0,"o":"m 506 -14 b 817 310 678 -14 817 82 l 817 319 b 575 611 817 478 710 579 b 740 818 675 642 740 725 l 740 821 b 432 1074 740 982 619 1074 b 89 767 247 1074 89 974 l 89 0 l 289 0 l 289 782 b 422 935 289 876 342 935 b 550 815 506 935 550 890 l 550 810 b 392 675 550 744 507 674 l 392 522 b 613 329 524 524 613 465 l 613 321 b 463 143 613 178 538 143 b 375 160 425 143 394 151 l 375 4 b 506 -14 399 -3 446 -14 z "},"®":{"ha":717,"x_min":0,"x_max":0,"o":"m 244 550 l 331 550 l 331 660 l 353 660 l 415 550 l 504 550 l 431 675 b 486 757 463 689 486 713 l 486 758 b 363 854 486 822 442 854 l 244 854 z m 331 715 l 331 789 l 358 789 b 403 754 386 789 403 779 l 403 753 b 358 715 403 728 388 715 z m 358 443 b 103 697 215 443 103 544 b 358 954 103 849 210 954 b 614 699 507 954 614 850 b 358 443 614 547 503 443 z m 358 390 b 672 699 533 390 672 525 b 358 1007 672 869 536 1007 b 43 697 182 1007 43 868 b 358 390 43 524 183 390 z "},"©":{"ha":1171,"x_min":0,"x_max":0,"o":"m 592 211 b 846 426 733 211 836 285 l 701 426 b 590 331 693 361 650 331 b 464 492 508 331 464 388 l 464 501 b 588 664 464 607 511 664 b 689 574 649 664 681 632 l 840 574 b 588 782 829 715 728 782 b 308 501 428 782 308 671 l 308 490 b 592 211 308 322 406 211 z m 585 44 b 140 496 346 44 140 225 b 588 949 140 764 339 949 b 1031 499 832 949 1031 765 b 585 44 1031 228 826 44 z m 585 -22 b 1111 499 878 -22 1111 204 b 588 1015 1111 786 885 1015 b 61 496 293 1015 61 785 b 585 -22 61 203 294 -22 z "},"™":{"ha":1033,"x_min":0,"x_max":0,"o":"m 475 546 l 582 546 l 582 835 l 697 546 l 736 546 l 853 835 l 853 546 l 976 546 l 976 993 l 822 993 l 724 739 l 626 993 l 475 993 z m 165 546 l 289 546 l 289 896 l 411 896 l 411 993 l 43 993 l 43 896 l 165 896 z "},"´":{"ha":556,"x_min":0,"x_max":0,"o":"m 194 825 l 340 825 l 485 1046 l 274 1046 z "},"¨":{"ha":556,"x_min":0,"x_max":0,"o":"m 136 833 b 239 933 193 833 239 878 b 136 1033 239 989 193 1033 b 33 933 79 1033 33 989 b 136 833 33 878 79 833 z m 419 833 b 522 933 476 833 522 878 b 419 1033 522 989 476 1033 b 317 933 363 1033 317 989 b 419 833 317 878 363 833 z "},"≠":{"ha":736,"x_min":0,"x_max":0,"o":"m 54 511 l 322 511 l 276 390 l 54 390 l 54 247 l 221 247 l 168 110 l 308 110 l 361 247 l 682 247 l 682 390 l 417 390 l 463 511 l 682 511 l 682 656 l 518 656 l 572 793 l 432 793 l 378 656 l 54 656 z "},"Æ":{"ha":1365,"x_min":0,"x_max":0,"o":"m 24 0 l 242 0 l 349 233 l 651 233 l 651 0 l 1317 0 l 1317 175 l 876 175 l 876 422 l 1208 422 l 1208 586 l 876 586 l 876 818 l 1293 818 l 1293 993 l 496 993 z m 618 818 l 651 818 l 651 389 l 421 389 z "},"Ø":{"ha":1133,"x_min":0,"x_max":0,"o":"m 121 -44 l 242 85 b 565 -15 326 21 436 -15 b 1078 496 875 -15 1078 199 l 1078 507 b 954 846 1078 643 1032 760 l 1056 954 l 981 1029 l 875 917 b 567 1007 792 974 686 1007 b 56 501 272 1007 56 797 l 56 490 b 167 158 56 360 94 244 l 46 29 z m 569 164 b 382 233 494 164 431 188 l 807 688 b 846 504 832 638 846 576 l 846 493 b 569 164 846 293 739 164 z m 288 492 l 288 503 b 567 829 288 704 393 829 b 740 772 636 829 696 808 l 319 322 b 288 492 299 369 288 425 z "},"±":{"ha":765,"x_min":0,"x_max":0,"o":"m 301 229 l 465 229 l 465 467 l 715 467 l 715 617 l 465 617 l 465 856 l 301 856 l 301 617 l 51 617 l 51 467 l 301 467 z m 51 0 l 717 0 l 717 139 l 51 139 z "},"≤":{"ha":707,"x_min":0,"x_max":0,"o":"m 631 186 l 631 369 l 351 510 l 631 651 l 631 832 l 64 529 l 64 489 z m 64 0 l 631 0 l 631 139 l 64 139 z "},"≥":{"ha":707,"x_min":0,"x_max":0,"o":"m 78 186 l 644 489 l 644 529 l 78 832 l 78 651 l 356 510 l 78 369 z m 78 0 l 644 0 l 644 139 l 78 139 z "},"¥":{"ha":863,"x_min":0,"x_max":0,"o":"m 99 401 l 326 401 l 326 317 l 99 317 l 99 225 l 326 225 l 326 0 l 551 0 l 551 225 l 779 225 l 779 317 l 551 317 l 551 401 l 779 401 l 779 494 l 578 494 l 838 993 l 622 993 l 447 624 l 268 993 l 24 993 l 299 494 l 99 494 z "},"ª":{"ha":639,"x_min":0,"x_max":0,"o":"m 235 400 b 408 482 326 400 378 438 l 408 414 l 582 414 l 582 788 b 329 1006 582 943 482 1006 b 61 803 179 1006 71 939 l 231 803 b 321 876 238 844 263 876 b 406 783 383 876 406 844 l 406 757 l 340 757 b 39 574 157 757 39 710 b 235 400 39 451 129 400 z m 292 525 b 217 588 239 525 217 547 b 346 660 217 640 264 660 l 406 660 l 406 617 b 292 525 406 558 357 525 z "},"º":{"ha":710,"x_min":0,"x_max":0,"o":"m 356 536 b 228 700 272 536 228 596 l 228 708 b 356 869 228 811 275 869 b 482 708 438 869 482 810 l 482 700 b 356 536 482 597 439 536 z m 354 400 b 665 701 531 400 665 515 l 665 710 b 356 1006 665 892 532 1006 b 44 703 179 1006 44 889 l 44 694 b 354 400 44 513 179 400 z "},"æ":{"ha":1247,"x_min":0,"x_max":0,"o":"m 865 -15 b 1201 229 1057 -15 1179 72 l 1013 229 b 867 128 1001 168 957 128 b 694 319 758 128 701 197 l 1204 319 l 1204 374 b 858 743 1204 636 1042 743 b 621 646 760 743 679 708 b 389 743 576 715 496 743 b 69 494 219 743 82 667 l 260 494 b 385 597 268 558 304 597 b 503 464 472 597 503 550 l 503 439 l 417 439 b 42 201 196 439 42 372 b 300 -15 42 49 158 -15 b 586 119 439 -15 524 32 b 865 -15 643 32 738 -15 z m 344 125 b 239 217 271 125 239 160 b 421 318 239 294 308 318 l 503 318 l 503 254 b 344 125 503 174 438 125 z m 697 439 b 858 604 710 543 769 604 b 1008 439 950 604 1000 551 z "},"ø":{"ha":856,"x_min":0,"x_max":0,"o":"m 99 -53 l 196 51 b 426 -15 258 8 338 -15 b 810 360 644 -15 810 131 l 810 371 b 721 619 810 472 776 557 l 811 717 l 743 778 l 651 679 b 428 743 590 721 513 743 b 44 367 210 743 44 594 l 44 356 b 128 113 44 257 75 175 l 31 8 z m 428 136 b 311 176 379 136 340 150 l 589 476 b 607 368 600 446 607 410 l 607 358 b 428 136 607 221 542 136 z m 249 360 l 249 371 b 428 590 249 510 315 590 b 536 554 471 590 508 578 l 263 258 b 249 360 253 288 249 321 z "},"¿":{"ha":739,"x_min":0,"x_max":0,"o":"m 499 521 l 313 521 l 313 486 b 165 292 304 413 232 357 b 51 75 106 233 51 169 b 361 -175 51 -72 156 -175 b 704 131 558 -175 696 -61 l 511 131 b 374 -12 501 43 450 -12 b 267 92 300 -12 267 28 b 361 240 267 147 310 192 b 499 479 426 303 499 371 z m 407 843 b 281 724 338 843 281 790 b 407 603 281 657 338 603 b 533 724 478 603 533 657 b 407 843 533 790 478 843 z "},"¡":{"ha":440,"x_min":0,"x_max":0,"o":"m 107 -162 l 332 -162 l 301 521 l 138 521 z m 221 603 b 347 724 290 603 347 656 b 221 843 347 790 290 843 b 93 724 151 843 93 790 b 221 603 93 656 151 603 z "},"ƒ":{"ha":596,"x_min":0,"x_max":0,"o":"m 35 433 l 143 433 l 43 -253 l 243 -253 l 343 433 l 531 433 l 531 575 l 364 575 l 389 746 b 496 850 397 810 431 850 b 575 838 531 850 556 844 l 575 990 b 471 1006 543 1001 515 1006 b 192 761 317 1006 215 932 l 164 575 l 35 575 z "},"≈":{"ha":763,"x_min":0,"x_max":0,"o":"m 56 190 l 178 190 b 242 253 185 231 208 253 b 531 196 311 253 418 196 b 707 413 619 196 700 265 l 585 413 b 522 350 579 371 554 350 b 235 408 451 350 344 408 b 56 190 144 408 65 343 z m 56 475 l 178 475 b 242 538 185 515 208 538 b 531 479 311 538 418 479 b 707 696 619 479 700 549 l 585 696 b 522 635 579 656 554 635 b 235 692 451 635 344 692 b 56 475 144 692 65 628 z "},"«":{"ha":676,"x_min":0,"x_max":0,"o":"m 233 104 l 376 104 l 207 363 l 376 621 l 233 621 l 57 363 z m 482 104 l 625 104 l 456 363 l 625 621 l 482 621 l 306 363 z "},"»":{"ha":676,"x_min":0,"x_max":0,"o":"m 53 104 l 196 104 l 371 363 l 196 621 l 53 621 l 221 363 z m 301 104 l 444 104 l 619 363 l 444 621 l 301 621 l 469 363 z "},"…":{"ha":1196,"x_min":0,"x_max":0,"o":"m 203 -12 b 328 110 274 -12 328 42 b 203 231 328 176 274 231 b 79 110 133 231 79 176 b 203 -12 79 42 133 -12 z m 597 -12 b 722 110 668 -12 722 42 b 597 231 722 176 668 231 b 475 110 528 231 475 176 b 597 -12 475 42 528 -12 z m 992 -12 b 1117 110 1063 -12 1117 42 b 992 231 1117 176 1063 231 b 869 110 922 231 869 176 b 992 -12 869 42 922 -12 z "}," ":{"ha":369,"x_min":0,"x_max":0,"o":""},"À":{"ha":1000,"x_min":0,"x_max":0,"o":"m 29 0 l 240 0 l 308 221 l 668 221 l 736 0 l 971 0 l 649 993 l 356 993 z m 489 810 l 619 381 l 357 381 z m 433 1060 l 585 1060 l 513 1253 l 296 1253 z "},"Ã":{"ha":1000,"x_min":0,"x_max":0,"o":"m 29 0 l 240 0 l 308 221 l 668 221 l 736 0 l 971 0 l 649 993 l 356 993 z m 583 1061 b 743 1254 663 1061 732 1126 l 622 1254 b 575 1203 617 1225 600 1203 b 414 1256 531 1203 482 1256 b 256 1061 332 1256 265 1189 l 375 1061 b 424 1113 381 1090 399 1113 b 583 1061 464 1113 511 1061 z m 489 810 l 619 381 l 357 381 z "},"Õ":{"ha":1133,"x_min":0,"x_max":0,"o":"m 650 1061 b 810 1254 729 1061 799 1126 l 689 1254 b 642 1203 683 1225 667 1203 b 481 1256 597 1203 549 1256 b 322 1061 399 1256 332 1189 l 442 1061 b 490 1113 447 1090 465 1113 b 650 1061 531 1113 578 1061 z m 569 164 b 290 492 407 164 290 289 l 290 503 b 567 829 290 703 394 829 b 843 504 740 829 843 697 l 843 493 b 569 164 843 293 738 164 z m 565 -15 b 1078 496 875 -15 1078 200 l 1078 507 b 567 1007 1078 806 865 1007 b 56 501 272 1007 56 797 l 56 490 b 565 -15 56 200 254 -15 z "},"Œ":{"ha":1347,"x_min":0,"x_max":0,"o":"m 56 497 l 56 486 b 575 0 56 189 229 0 l 1299 0 l 1299 175 l 874 175 l 874 422 l 1190 422 l 1190 586 l 874 586 l 874 818 l 1275 818 l 1275 993 l 576 993 b 56 497 231 993 56 794 z m 650 818 l 650 175 l 586 175 b 290 489 376 175 290 285 l 290 500 b 583 818 290 706 383 818 z "},"œ":{"ha":1374,"x_min":0,"x_max":0,"o":"m 426 -15 b 703 110 544 -15 640 29 b 982 -15 764 29 860 -15 b 1328 229 1181 -15 1306 72 l 1138 229 b 988 128 1126 168 1081 128 b 806 318 876 128 813 197 l 1331 318 l 1331 374 b 976 743 1331 633 1164 743 b 706 615 861 743 767 696 b 428 743 644 696 547 743 b 44 367 210 743 44 594 l 44 356 b 426 -15 44 129 210 -15 z m 428 138 b 250 360 314 138 250 219 l 250 371 b 428 590 250 510 317 590 b 606 368 540 590 606 507 l 606 358 b 428 138 606 221 540 138 z m 810 442 b 976 604 824 544 886 604 b 1133 442 1071 604 1126 551 z "},"–":{"ha":743,"x_min":0,"x_max":0,"o":"m 63 333 l 681 333 l 681 461 l 63 461 z "},"—":{"ha":1283,"x_min":0,"x_max":0,"o":"m 63 333 l 1221 333 l 1221 461 l 63 461 z "},"“":{"ha":692,"x_min":0,"x_max":0,"o":"m 226 625 l 342 963 l 226 1010 l 47 690 z m 517 625 l 632 963 l 517 1010 l 338 690 z "},"”":{"ha":692,"x_min":0,"x_max":0,"o":"m 176 625 l 356 946 l 176 1010 l 61 672 z m 465 625 l 646 946 l 467 1010 l 351 672 z "},"‘":{"ha":403,"x_min":0,"x_max":0,"o":"m 226 625 l 342 963 l 226 1010 l 47 690 z "},"’":{"ha":403,"x_min":0,"x_max":0,"o":"m 176 625 l 356 946 l 176 1010 l 61 672 z "},"÷":{"ha":768,"x_min":0,"x_max":0,"o":"m 383 83 b 500 197 447 83 500 133 b 383 311 500 260 447 311 b 268 197 319 311 268 260 b 383 83 268 133 319 83 z m 51 401 l 717 401 l 717 546 l 51 546 z m 383 636 b 500 750 447 636 500 686 b 383 864 500 814 447 864 b 268 750 319 864 268 814 b 383 636 268 686 319 636 z "},"ÿ":{"ha":788,"x_min":0,"x_max":0,"o":"m 181 -247 l 375 -247 l 768 726 l 575 726 l 413 290 l 236 726 l 19 726 l 308 74 z m 265 833 b 368 933 322 833 368 878 b 265 1033 368 989 322 1033 b 163 933 208 1033 163 989 b 265 833 163 878 208 833 z m 549 833 b 651 933 606 833 651 878 b 549 1033 651 989 606 1033 b 446 933 492 1033 446 989 b 549 833 446 878 492 833 z "},"Ÿ":{"ha":900,"x_min":0,"x_max":0,"o":"m 346 0 l 572 0 l 572 428 l 882 993 l 664 993 l 467 613 l 265 993 l 18 993 l 346 428 z m 306 1068 b 408 1169 361 1068 408 1114 b 306 1269 408 1225 361 1269 b 203 1169 249 1269 203 1225 b 306 1068 203 1114 249 1068 z m 604 1068 b 707 1169 661 1068 707 1114 b 604 1269 707 1225 661 1269 b 503 1169 549 1269 503 1225 b 604 1068 503 1114 549 1068 z "},"⁄":{"ha":206,"x_min":0,"x_max":0,"o":"m -331 0 l -214 0 l 536 993 l 419 993 z "},"€":{"ha":976,"x_min":0,"x_max":0,"o":"m 36 536 l 124 536 l 124 450 l 36 450 l 36 358 l 129 358 b 535 -15 157 140 297 -15 b 928 346 768 -15 901 118 l 721 346 b 539 160 704 222 646 160 b 347 358 425 160 365 232 l 557 358 l 574 450 l 343 450 l 343 536 l 589 536 l 606 628 l 347 628 b 538 836 365 754 426 836 b 710 668 635 836 696 776 l 919 668 b 539 1007 897 888 761 1007 b 129 628 308 1007 158 847 l 36 628 z "},"‹":{"ha":433,"x_min":0,"x_max":0,"o":"m 233 104 l 382 104 l 213 363 l 382 621 l 233 621 l 57 363 z "},"›":{"ha":433,"x_min":0,"x_max":0,"o":"m 53 104 l 201 104 l 376 363 l 201 621 l 53 621 l 221 363 z "},"‡":{"ha":547,"x_min":0,"x_max":0,"o":"m 190 585 l 38 585 l 38 450 l 190 450 l 190 296 l 357 296 l 357 450 l 508 450 l 508 585 l 357 585 l 357 704 l 508 704 l 508 839 l 357 839 l 357 993 l 190 993 l 190 839 l 38 839 l 38 704 l 190 704 z "},"·":{"ha":407,"x_min":0,"x_max":0,"o":"m 203 332 b 328 454 274 332 328 386 b 203 575 328 521 274 575 b 79 454 133 575 79 521 b 203 332 79 386 133 332 z "},"‚":{"ha":401,"x_min":0,"x_max":0,"o":"m 172 -151 l 353 169 l 174 235 l 58 -104 z "},"„":{"ha":692,"x_min":0,"x_max":0,"o":"m 172 -151 l 353 169 l 174 235 l 58 -104 z m 463 -151 l 643 169 l 464 235 l 347 -104 z "},"‰":{"ha":1649,"x_min":0,"x_max":0,"o":"m 286 649 b 193 765 229 649 193 692 b 286 881 193 838 229 881 b 378 765 343 881 378 836 b 286 649 378 693 343 649 z m 285 525 b 532 768 428 525 532 629 b 286 1003 532 906 424 1003 b 39 764 149 1003 39 901 b 285 525 39 628 140 525 z m 165 0 l 290 0 l 950 993 l 825 993 z m 821 110 b 728 226 764 110 728 151 b 821 342 728 299 764 342 b 913 226 879 342 913 297 b 821 110 913 154 879 110 z m 821 -15 b 1067 229 964 -15 1067 90 b 821 464 1067 365 958 464 b 575 225 683 464 575 363 b 821 -15 575 88 675 -15 z m 1364 110 b 1271 226 1307 110 1271 151 b 1364 342 1271 299 1307 342 b 1457 226 1422 342 1457 297 b 1364 110 1457 154 1422 110 z m 1364 -15 b 1610 229 1507 -15 1610 90 b 1364 464 1610 365 1501 464 b 1118 225 1226 464 1118 363 b 1364 -15 1118 88 1218 -15 z "},"Â":{"ha":1000,"x_min":0,"x_max":0,"o":"m 29 0 l 240 0 l 308 221 l 668 221 l 736 0 l 971 0 l 649 993 l 356 993 z m 489 810 l 619 381 l 357 381 z m 260 1060 l 401 1060 l 497 1133 l 592 1060 l 736 1060 l 586 1253 l 415 1253 z "},"Ê":{"ha":826,"x_min":0,"x_max":0,"o":"m 201 1060 l 343 1060 l 439 1133 l 533 1060 l 678 1060 l 528 1253 l 357 1253 z m 107 0 l 776 0 l 776 175 l 331 175 l 331 422 l 669 422 l 669 586 l 331 586 l 331 818 l 754 818 l 754 993 l 107 993 z "},"Á":{"ha":1000,"x_min":0,"x_max":0,"o":"m 29 0 l 240 0 l 308 221 l 668 221 l 736 0 l 971 0 l 649 993 l 356 993 z m 489 810 l 619 381 l 357 381 z m 413 1060 l 564 1060 l 704 1253 l 486 1253 z "},"Ë":{"ha":826,"x_min":0,"x_max":0,"o":"m 107 0 l 776 0 l 776 175 l 331 175 l 331 422 l 669 422 l 669 586 l 331 586 l 331 818 l 754 818 l 754 993 l 107 993 z m 290 1068 b 393 1169 346 1068 393 1114 b 290 1269 393 1225 346 1269 b 188 1169 233 1269 188 1225 b 290 1068 188 1114 233 1068 z m 589 1068 b 692 1169 646 1068 692 1114 b 589 1269 692 1225 646 1269 b 488 1169 533 1269 488 1225 b 589 1068 488 1114 533 1068 z "},"È":{"ha":826,"x_min":0,"x_max":0,"o":"m 375 1060 l 526 1060 l 454 1253 l 238 1253 z m 107 0 l 776 0 l 776 175 l 331 175 l 331 422 l 669 422 l 669 586 l 331 586 l 331 818 l 754 818 l 754 993 l 107 993 z "},"Í":{"ha":451,"x_min":0,"x_max":0,"o":"m 113 0 l 339 0 l 339 993 l 113 993 z m 139 1060 l 290 1060 l 431 1253 l 213 1253 z "},"Î":{"ha":451,"x_min":0,"x_max":0,"o":"m 113 0 l 339 0 l 339 993 l 113 993 z m -14 1060 l 128 1060 l 224 1133 l 318 1060 l 463 1060 l 313 1253 l 142 1253 z "},"Ï":{"ha":451,"x_min":0,"x_max":0,"o":"m 113 0 l 339 0 l 339 993 l 113 993 z m 75 1068 b 178 1169 131 1068 178 1114 b 75 1269 178 1225 131 1269 b -28 1169 18 1269 -28 1225 b 75 1068 -28 1114 18 1068 z m 374 1068 b 476 1169 431 1068 476 1114 b 374 1269 476 1225 431 1269 b 272 1169 318 1269 272 1225 b 374 1068 272 1114 318 1068 z "},"Ì":{"ha":451,"x_min":0,"x_max":0,"o":"m 113 0 l 339 0 l 339 993 l 113 993 z m 160 1060 l 311 1060 l 239 1253 l 22 1253 z "},"Ó":{"ha":1133,"x_min":0,"x_max":0,"o":"m 479 1060 l 631 1060 l 771 1253 l 553 1253 z m 569 164 b 290 492 407 164 290 289 l 290 503 b 567 829 290 703 394 829 b 843 504 740 829 843 697 l 843 493 b 569 164 843 293 738 164 z m 565 -15 b 1078 496 875 -15 1078 200 l 1078 507 b 567 1007 1078 806 865 1007 b 56 501 272 1007 56 797 l 56 490 b 565 -15 56 200 254 -15 z "},"Ô":{"ha":1133,"x_min":0,"x_max":0,"o":"m 326 1060 l 468 1060 l 564 1133 l 658 1060 l 803 1060 l 653 1253 l 482 1253 z m 569 164 b 290 492 407 164 290 289 l 290 503 b 567 829 290 703 394 829 b 843 504 740 829 843 697 l 843 493 b 569 164 843 293 738 164 z m 565 -15 b 1078 496 875 -15 1078 200 l 1078 507 b 567 1007 1078 806 865 1007 b 56 501 272 1007 56 797 l 56 490 b 565 -15 56 200 254 -15 z "},"Ò":{"ha":1133,"x_min":0,"x_max":0,"o":"m 500 1060 l 651 1060 l 579 1253 l 363 1253 z m 569 164 b 290 492 407 164 290 289 l 290 503 b 567 829 290 703 394 829 b 843 504 740 829 843 697 l 843 493 b 569 164 843 293 738 164 z m 565 -15 b 1078 496 875 -15 1078 200 l 1078 507 b 567 1007 1078 806 865 1007 b 56 501 272 1007 56 797 l 56 490 b 565 -15 56 200 254 -15 z "},"Ú":{"ha":1026,"x_min":0,"x_max":0,"o":"m 425 1060 l 576 1060 l 717 1253 l 499 1253 z m 508 -15 b 928 396 776 -15 928 125 l 928 993 l 701 993 l 701 410 b 510 164 701 228 643 164 b 325 401 374 164 325 236 l 325 993 l 99 993 l 99 388 b 508 -15 99 124 247 -15 z "},"Û":{"ha":1026,"x_min":0,"x_max":0,"o":"m 272 1060 l 414 1060 l 510 1133 l 604 1060 l 749 1060 l 599 1253 l 428 1253 z m 508 -15 b 928 396 776 -15 928 125 l 928 993 l 701 993 l 701 410 b 510 164 701 228 643 164 b 325 401 374 164 325 236 l 325 993 l 99 993 l 99 388 b 508 -15 99 124 247 -15 z "},"Ù":{"ha":1026,"x_min":0,"x_max":0,"o":"m 446 1060 l 597 1060 l 525 1253 l 308 1253 z m 508 -15 b 928 396 776 -15 928 125 l 928 993 l 701 993 l 701 410 b 510 164 701 228 643 164 b 325 401 374 164 325 236 l 325 993 l 99 993 l 99 388 b 508 -15 99 124 247 -15 z "},"ı":{"ha":390,"x_min":0,"x_max":0,"o":"m 94 0 l 294 0 l 294 726 l 94 726 z "},"ˆ":{"ha":556,"x_min":0,"x_max":0,"o":"m 42 826 l 179 826 l 276 914 l 372 826 l 514 826 l 356 1043 l 204 1043 z "},"˜":{"ha":556,"x_min":0,"x_max":0,"o":"m 361 831 b 517 1028 440 831 506 899 l 400 1028 b 353 976 394 997 378 976 b 193 1028 308 976 261 1028 b 40 832 111 1028 50 960 l 156 832 b 204 883 161 861 181 883 b 361 831 246 883 290 831 z "},"¯":{"ha":556,"x_min":0,"x_max":0,"o":"m 75 868 l 479 868 l 479 989 l 75 989 z "},"˘":{"ha":556,"x_min":0,"x_max":0,"o":"m 276 831 b 490 1038 394 831 483 910 l 361 1038 b 276 963 353 992 325 963 b 197 1038 228 963 203 992 l 65 1038 b 276 831 72 910 156 831 z "},"˙":{"ha":556,"x_min":0,"x_max":0,"o":"m 278 831 b 390 938 340 831 390 878 b 278 1044 390 999 340 1044 b 165 938 214 1044 165 999 b 278 831 165 878 214 831 z "},"˚":{"ha":556,"x_min":0,"x_max":0,"o":"m 278 893 b 211 967 239 893 211 924 b 278 1040 211 1008 239 1040 b 344 967 317 1040 344 1008 b 278 893 344 924 317 893 z m 278 813 b 436 967 365 813 436 882 b 278 1119 436 1050 365 1119 b 119 967 190 1119 119 1050 b 278 813 119 882 190 813 z "},"¸":{"ha":556,"x_min":0,"x_max":0,"o":"m 285 -308 b 443 -183 376 -308 443 -264 b 299 -67 443 -96 372 -58 l 339 0 l 249 0 l 186 -103 l 236 -151 b 279 -137 244 -144 258 -137 b 326 -181 308 -137 326 -156 b 278 -226 326 -207 308 -226 b 225 -183 246 -226 229 -206 l 122 -183 b 285 -308 132 -261 192 -308 z "},"˝":{"ha":556,"x_min":0,"x_max":0,"o":"m 97 825 l 221 825 l 326 1046 l 156 1046 z m 331 825 l 456 825 l 561 1046 l 389 1046 z "},"˛":{"ha":556,"x_min":0,"x_max":0,"o":"m 288 -253 b 400 -232 338 -253 376 -243 l 400 -132 b 347 -142 385 -139 367 -142 b 301 -99 319 -142 301 -128 b 374 0 301 -64 325 -35 l 249 0 b 132 -143 189 -29 132 -76 b 288 -253 132 -212 200 -253 z "},"ˇ":{"ha":556,"x_min":0,"x_max":0,"o":"m 200 826 l 351 826 l 514 1043 l 375 1043 l 279 956 l 183 1043 l 42 1043 z "},"Đ":{"ha":1046,"x_min":0,"x_max":0,"o":"m 43 421 l 133 421 l 133 0 l 457 0 b 979 496 806 0 979 199 l 979 507 b 458 993 979 804 807 993 l 133 993 l 133 576 l 43 576 z m 356 175 l 356 421 l 565 421 l 565 576 l 356 576 l 356 818 l 449 818 b 744 504 657 818 744 708 l 744 493 b 450 175 744 288 651 175 z "},"Ŋ":{"ha":1053,"x_min":0,"x_max":0,"o":"m 633 -268 b 946 25 829 -268 946 -161 l 946 993 l 742 993 l 742 342 l 371 993 l 107 993 l 107 0 l 311 0 l 311 721 l 722 14 b 590 -96 714 -61 664 -96 b 474 -72 536 -96 507 -85 l 474 -237 b 633 -268 508 -254 550 -268 z "},"Ĳ":{"ha":1042,"x_min":0,"x_max":0,"o":"m 113 0 l 339 0 l 339 993 l 113 993 z m 621 -12 b 947 321 825 -12 947 96 l 947 993 l 721 993 l 721 324 b 581 167 721 210 665 167 b 456 190 522 167 489 178 l 456 18 b 621 -12 490 0 535 -12 z "},"ȷ":{"ha":390,"x_min":0,"x_max":0,"o":"m -1 -260 b 294 -12 225 -257 294 -164 l 294 726 l 94 726 l 94 -14 b -1 -110 94 -72 68 -104 z "},"đ":{"ha":885,"x_min":0,"x_max":0,"o":"m 368 829 l 594 829 l 594 618 b 365 743 554 692 482 743 b 46 364 183 743 46 603 l 46 353 b 361 -15 46 111 185 -15 b 594 121 468 -15 557 47 l 594 0 l 794 0 l 794 829 l 883 829 l 883 944 l 794 944 l 794 1056 l 594 1056 l 594 944 l 368 944 z m 421 142 b 251 357 321 142 251 213 l 251 368 b 426 589 251 513 314 589 b 600 371 536 589 600 515 l 600 360 b 421 142 600 213 526 142 z "},"ŋ":{"ha":854,"x_min":0,"x_max":0,"o":"m 475 -260 b 771 -12 701 -257 771 -164 l 771 463 b 526 743 771 657 669 743 b 290 611 406 743 326 683 l 290 726 l 89 726 l 89 0 l 290 0 l 290 419 b 442 579 290 526 356 579 b 569 433 531 579 569 532 l 569 -14 b 475 -110 569 -72 544 -104 z "},"ĳ":{"ha":779,"x_min":0,"x_max":0,"o":"m 94 0 l 294 0 l 294 726 l 94 726 z m 193 825 b 308 935 258 825 308 872 b 193 1044 308 997 258 1044 b 79 935 129 1044 79 997 b 193 825 79 872 129 825 z m 388 -260 b 683 -12 614 -257 683 -164 l 683 726 l 483 726 l 483 -14 b 388 -110 483 -72 457 -104 z m 582 825 b 697 935 647 825 697 872 b 582 1044 697 997 647 1044 b 468 935 518 1044 468 997 b 582 825 468 872 518 825 z "},"Ă":{"ha":1000,"x_min":0,"x_max":0,"o":"m 29 0 l 240 0 l 308 221 l 668 221 l 736 0 l 971 0 l 649 993 l 356 993 z m 497 1051 b 713 1254 618 1051 704 1132 l 579 1254 b 497 1182 571 1210 543 1182 b 419 1254 451 1182 426 1210 l 285 1254 b 497 1051 292 1132 374 1051 z m 489 810 l 619 381 l 357 381 z "},"Ā":{"ha":1000,"x_min":0,"x_max":0,"o":"m 29 0 l 240 0 l 308 221 l 668 221 l 736 0 l 971 0 l 649 993 l 356 993 z m 489 810 l 619 381 l 357 381 z m 289 1079 l 708 1079 l 708 1206 l 289 1206 z "},"Ą":{"ha":1000,"x_min":0,"x_max":0,"o":"m 858 -253 b 971 -232 910 -253 946 -243 l 971 -128 b 918 -137 956 -135 938 -137 b 872 -96 889 -137 872 -124 b 967 14 872 -62 903 -24 l 649 993 l 356 993 l 29 0 l 240 0 l 308 221 l 668 221 l 736 0 l 811 0 b 696 -140 753 -29 696 -76 b 858 -253 696 -210 758 -253 z m 489 810 l 619 381 l 357 381 z "},"Ǻ":{"ha":1000,"x_min":0,"x_max":0,"o":"m 29 0 l 240 0 l 308 221 l 668 221 l 736 0 l 971 0 l 649 993 l 356 993 z m 506 1035 b 665 1189 593 1035 665 1104 b 506 1344 665 1275 593 1344 b 346 1189 418 1344 346 1275 b 506 1035 346 1104 418 1035 z m 489 810 l 619 381 l 357 381 z m 428 1374 l 579 1374 l 719 1567 l 501 1567 z m 506 1115 b 438 1189 465 1115 438 1146 b 506 1264 438 1232 465 1264 b 574 1189 544 1264 574 1232 b 506 1115 574 1146 544 1115 z "},"Ǽ":{"ha":1365,"x_min":0,"x_max":0,"o":"m 24 0 l 242 0 l 349 233 l 651 233 l 651 0 l 1317 0 l 1317 175 l 876 175 l 876 422 l 1208 422 l 1208 586 l 876 586 l 876 818 l 1293 818 l 1293 993 l 496 993 z m 618 818 l 651 818 l 651 389 l 421 389 z m 764 1060 l 915 1060 l 1056 1253 l 838 1253 z "},"Ć":{"ha":1039,"x_min":0,"x_max":0,"o":"m 554 -15 b 1000 357 799 -15 975 111 l 779 357 b 551 167 761 229 675 167 b 293 492 388 167 293 286 l 293 503 b 550 831 293 708 393 831 b 758 647 675 831 742 767 l 989 647 b 549 1008 965 892 788 1008 b 56 501 267 1008 56 803 l 56 490 b 554 -15 56 185 229 -15 z m 461 1060 l 613 1060 l 753 1253 l 535 1253 z "},"Č":{"ha":1039,"x_min":0,"x_max":0,"o":"m 458 1060 l 629 1060 l 785 1253 l 643 1253 l 549 1181 l 453 1253 l 308 1253 z m 554 -15 b 1000 357 799 -15 975 111 l 779 357 b 551 167 761 229 675 167 b 293 492 388 167 293 286 l 293 503 b 550 831 293 708 393 831 b 758 647 675 831 742 767 l 989 647 b 549 1008 965 892 788 1008 b 56 501 267 1008 56 803 l 56 490 b 554 -15 56 185 229 -15 z "},"Ĉ":{"ha":1039,"x_min":0,"x_max":0,"o":"m 308 1060 l 450 1060 l 546 1133 l 640 1060 l 785 1060 l 635 1253 l 464 1253 z m 554 -15 b 1000 357 799 -15 975 111 l 779 357 b 551 167 761 229 675 167 b 293 492 388 167 293 286 l 293 503 b 550 831 293 708 393 831 b 758 647 675 831 742 767 l 989 647 b 549 1008 965 892 788 1008 b 56 501 267 1008 56 803 l 56 490 b 554 -15 56 185 229 -15 z "},"Ċ":{"ha":1039,"x_min":0,"x_max":0,"o":"m 554 -15 b 1000 357 799 -15 975 111 l 779 357 b 551 167 761 229 675 167 b 293 492 388 167 293 286 l 293 503 b 550 831 293 708 393 831 b 758 647 675 831 742 767 l 989 647 b 549 1008 965 892 788 1008 b 56 501 267 1008 56 803 l 56 490 b 554 -15 56 185 229 -15 z m 544 1067 b 656 1174 607 1067 656 1114 b 544 1281 656 1233 607 1281 b 432 1174 481 1281 432 1233 b 544 1067 432 1114 481 1067 z "},"Ď":{"ha":1008,"x_min":0,"x_max":0,"o":"m 368 1060 l 539 1060 l 694 1253 l 553 1253 l 458 1181 l 363 1253 l 218 1253 z m 332 175 l 332 818 l 421 818 b 718 504 631 818 718 708 l 718 493 b 424 175 718 288 624 175 z m 107 0 l 431 0 b 953 496 779 0 953 199 l 953 507 b 432 993 953 804 781 993 l 107 993 z "},"Ĕ":{"ha":826,"x_min":0,"x_max":0,"o":"m 107 0 l 776 0 l 776 175 l 331 175 l 331 422 l 669 422 l 669 586 l 331 586 l 331 818 l 754 818 l 754 993 l 107 993 z m 442 1051 b 657 1254 563 1051 649 1132 l 524 1254 b 442 1182 515 1210 488 1182 b 364 1254 396 1182 371 1210 l 229 1254 b 442 1051 236 1132 318 1051 z "},"Ě":{"ha":826,"x_min":0,"x_max":0,"o":"m 354 1060 l 525 1060 l 681 1253 l 539 1253 l 444 1181 l 349 1253 l 204 1253 z m 107 0 l 776 0 l 776 175 l 331 175 l 331 422 l 669 422 l 669 586 l 331 586 l 331 818 l 754 818 l 754 993 l 107 993 z "},"Ė":{"ha":826,"x_min":0,"x_max":0,"o":"m 440 1067 b 551 1174 503 1067 551 1114 b 440 1281 551 1233 503 1281 b 328 1174 376 1281 328 1233 b 440 1067 328 1114 376 1067 z m 107 0 l 776 0 l 776 175 l 331 175 l 331 422 l 669 422 l 669 586 l 331 586 l 331 818 l 754 818 l 754 993 l 107 993 z "},"Ē":{"ha":826,"x_min":0,"x_max":0,"o":"m 107 0 l 776 0 l 776 175 l 331 175 l 331 422 l 669 422 l 669 586 l 331 586 l 331 818 l 754 818 l 754 993 l 107 993 z m 231 1079 l 650 1079 l 650 1206 l 231 1206 z "},"Ę":{"ha":826,"x_min":0,"x_max":0,"o":"m 642 -253 b 757 -232 694 -253 732 -243 l 757 -128 b 704 -137 742 -135 724 -137 b 658 -96 675 -137 658 -124 b 729 0 658 -62 682 -35 l 776 0 l 776 175 l 331 175 l 331 422 l 669 422 l 669 586 l 331 586 l 331 818 l 754 818 l 754 993 l 107 993 l 107 0 l 597 0 b 482 -140 539 -29 482 -76 b 642 -253 482 -210 544 -253 z "},"Ğ":{"ha":1083,"x_min":0,"x_max":0,"o":"m 561 -15 b 1028 426 858 -15 1028 161 l 1028 532 l 582 532 l 582 368 l 806 368 b 567 158 801 254 733 158 b 290 488 372 158 290 296 l 290 499 b 564 831 290 701 392 831 b 779 661 683 831 760 778 l 1003 661 b 561 1008 979 907 782 1008 b 56 501 268 1008 56 800 l 56 490 b 561 -15 56 196 236 -15 z m 554 1051 b 769 1254 675 1051 761 1132 l 636 1254 b 554 1182 628 1210 600 1182 b 476 1254 508 1182 483 1210 l 342 1254 b 554 1051 349 1132 431 1051 z "},"Ĝ":{"ha":1083,"x_min":0,"x_max":0,"o":"m 561 -15 b 1028 426 858 -15 1028 161 l 1028 532 l 582 532 l 582 368 l 806 368 b 567 158 801 254 733 158 b 290 488 372 158 290 296 l 290 499 b 564 831 290 701 392 831 b 779 661 683 831 760 778 l 1003 661 b 561 1008 979 907 782 1008 b 56 501 268 1008 56 800 l 56 490 b 561 -15 56 196 236 -15 z m 317 1060 l 458 1060 l 554 1133 l 649 1060 l 793 1060 l 643 1253 l 472 1253 z "},"Ģ":{"ha":1083,"x_min":0,"x_max":0,"o":"m 561 -15 b 1028 426 858 -15 1028 161 l 1028 532 l 582 532 l 582 368 l 806 368 b 567 158 801 254 733 158 b 290 488 372 158 290 296 l 290 499 b 564 831 290 701 392 831 b 779 661 683 831 760 778 l 1003 661 b 561 1008 979 907 782 1008 b 56 501 268 1008 56 800 l 56 490 b 561 -15 56 196 236 -15 z m 525 -317 l 657 -72 l 476 -43 l 411 -279 z "},"Ġ":{"ha":1083,"x_min":0,"x_max":0,"o":"m 561 -15 b 1028 426 858 -15 1028 161 l 1028 532 l 582 532 l 582 368 l 806 368 b 567 158 801 254 733 158 b 290 488 372 158 290 296 l 290 499 b 564 831 290 701 392 831 b 779 661 683 831 760 778 l 1003 661 b 561 1008 979 907 782 1008 b 56 501 268 1008 56 800 l 56 490 b 561 -15 56 196 236 -15 z m 556 1067 b 667 1174 618 1067 667 1114 b 556 1281 667 1233 618 1281 b 443 1174 492 1281 443 1233 b 556 1067 443 1114 492 1067 z "},"Ħ":{"ha":1061,"x_min":0,"x_max":0,"o":"m 18 710 l 107 710 l 107 0 l 332 0 l 332 410 l 731 410 l 731 0 l 956 0 l 956 710 l 1044 710 l 1044 828 l 956 828 l 956 993 l 731 993 l 731 828 l 332 828 l 332 993 l 107 993 l 107 828 l 18 828 z m 332 588 l 332 710 l 731 710 l 731 588 z "},"Ĥ":{"ha":1061,"x_min":0,"x_max":0,"o":"m 107 0 l 332 0 l 332 410 l 731 410 l 731 0 l 956 0 l 956 993 l 731 993 l 731 588 l 332 588 l 332 993 l 107 993 z m 292 1060 l 433 1060 l 529 1133 l 624 1060 l 768 1060 l 618 1253 l 447 1253 z "},"İ":{"ha":451,"x_min":0,"x_max":0,"o":"m 113 0 l 339 0 l 339 993 l 113 993 z m 226 1067 b 338 1174 289 1067 338 1114 b 226 1281 338 1233 289 1281 b 114 1174 163 1281 114 1233 b 226 1067 114 1114 163 1067 z "},"Ĭ":{"ha":451,"x_min":0,"x_max":0,"o":"m 113 0 l 339 0 l 339 993 l 113 993 z m 226 1051 b 442 1254 347 1051 433 1132 l 308 1254 b 226 1182 300 1210 272 1182 b 149 1254 181 1182 156 1210 l 14 1254 b 226 1051 21 1132 103 1051 z "},"Ī":{"ha":451,"x_min":0,"x_max":0,"o":"m 113 0 l 339 0 l 339 993 l 113 993 z m 15 1079 l 435 1079 l 435 1206 l 15 1206 z "},"Į":{"ha":451,"x_min":0,"x_max":0,"o":"m 236 -253 b 350 -232 289 -253 325 -243 l 350 -128 b 297 -137 335 -135 317 -137 b 251 -96 268 -137 251 -124 b 339 13 251 -60 281 -25 l 339 993 l 113 993 l 113 0 l 190 0 b 75 -140 132 -29 75 -76 b 236 -253 75 -210 138 -253 z "},"Ĩ":{"ha":451,"x_min":0,"x_max":0,"o":"m 113 0 l 339 0 l 339 993 l 113 993 z m 313 1061 b 472 1254 392 1061 461 1126 l 351 1254 b 304 1203 346 1225 329 1203 b 143 1256 260 1203 211 1256 b -15 1061 61 1256 -6 1189 l 104 1061 b 153 1113 110 1090 128 1113 b 313 1061 193 1113 240 1061 z "},"Ĵ":{"ha":635,"x_min":0,"x_max":0,"o":"m 185 1060 l 326 1060 l 422 1133 l 517 1060 l 661 1060 l 511 1253 l 340 1253 z m 214 -12 b 540 321 418 -12 540 96 l 540 993 l 314 993 l 314 324 b 174 167 314 210 258 167 b 49 190 115 167 82 178 l 49 18 b 214 -12 83 0 128 -12 z "},"Ķ":{"ha":953,"x_min":0,"x_max":0,"o":"m 107 0 l 332 0 l 332 446 l 675 0 l 938 0 l 525 524 l 918 994 l 679 994 l 332 565 l 332 993 l 107 993 z m 461 -317 l 593 -72 l 413 -43 l 347 -279 z "},"Ĺ":{"ha":778,"x_min":0,"x_max":0,"o":"m 138 1060 l 289 1060 l 429 1253 l 211 1253 z m 107 0 l 736 0 l 736 176 l 332 176 l 332 993 l 107 993 z "},"Ľ":{"ha":778,"x_min":0,"x_max":0,"o":"m 451 758 l 572 758 l 656 993 l 478 993 z m 107 0 l 736 0 l 736 176 l 332 176 l 332 993 l 107 993 z "},"Ļ":{"ha":778,"x_min":0,"x_max":0,"o":"m 389 -317 l 521 -72 l 340 -43 l 275 -279 z m 107 0 l 736 0 l 736 176 l 332 176 l 332 993 l 107 993 z "},"Ŀ":{"ha":801,"x_min":0,"x_max":0,"o":"m 107 0 l 736 0 l 736 176 l 332 176 l 332 993 l 107 993 z m 621 426 b 746 549 692 426 746 481 b 621 669 746 615 692 669 b 497 549 551 669 497 615 b 621 426 497 481 551 426 z "},"Ń":{"ha":1053,"x_min":0,"x_max":0,"o":"m 461 1060 l 613 1060 l 753 1253 l 535 1253 z m 107 0 l 307 0 l 307 707 l 721 0 l 946 0 l 946 993 l 746 993 l 746 339 l 368 993 l 107 993 z "},"Ň":{"ha":1053,"x_min":0,"x_max":0,"o":"m 458 1060 l 629 1060 l 785 1253 l 643 1253 l 549 1181 l 453 1253 l 308 1253 z m 107 0 l 307 0 l 307 707 l 721 0 l 946 0 l 946 993 l 746 993 l 746 339 l 368 993 l 107 993 z "},"Ņ":{"ha":1053,"x_min":0,"x_max":0,"o":"m 486 -317 l 618 -72 l 438 -43 l 372 -279 z m 107 0 l 307 0 l 307 707 l 721 0 l 946 0 l 946 993 l 746 993 l 746 339 l 368 993 l 107 993 z "},"Ŏ":{"ha":1133,"x_min":0,"x_max":0,"o":"m 564 1051 b 779 1254 685 1051 771 1132 l 646 1254 b 564 1182 638 1210 610 1182 b 486 1254 518 1182 493 1210 l 351 1254 b 564 1051 358 1132 440 1051 z m 569 164 b 290 492 407 164 290 289 l 290 503 b 567 829 290 703 394 829 b 843 504 740 829 843 697 l 843 493 b 569 164 843 293 738 164 z m 565 -15 b 1078 496 875 -15 1078 200 l 1078 507 b 567 1007 1078 806 865 1007 b 56 501 272 1007 56 797 l 56 490 b 565 -15 56 200 254 -15 z "},"Ő":{"ha":1133,"x_min":0,"x_max":0,"o":"m 360 1060 l 496 1060 l 597 1253 l 414 1253 z m 610 1060 l 744 1060 l 847 1253 l 664 1253 z m 569 164 b 290 492 407 164 290 289 l 290 503 b 567 829 290 703 394 829 b 843 504 740 829 843 697 l 843 493 b 569 164 843 293 738 164 z m 565 -15 b 1078 496 875 -15 1078 200 l 1078 507 b 567 1007 1078 806 865 1007 b 56 501 272 1007 56 797 l 56 490 b 565 -15 56 200 254 -15 z "},"Ō":{"ha":1133,"x_min":0,"x_max":0,"o":"m 356 1079 l 775 1079 l 775 1206 l 356 1206 z m 569 164 b 290 492 407 164 290 289 l 290 503 b 567 829 290 703 394 829 b 843 504 740 829 843 697 l 843 493 b 569 164 843 293 738 164 z m 565 -15 b 1078 496 875 -15 1078 200 l 1078 507 b 567 1007 1078 806 865 1007 b 56 501 272 1007 56 797 l 56 490 b 565 -15 56 200 254 -15 z "},"Ǿ":{"ha":1133,"x_min":0,"x_max":0,"o":"m 121 -44 l 242 85 b 565 -15 326 21 436 -15 b 1078 496 875 -15 1078 199 l 1078 507 b 954 846 1078 643 1032 760 l 1056 954 l 981 1029 l 875 917 b 567 1007 792 974 686 1007 b 56 501 272 1007 56 797 l 56 490 b 167 158 56 360 94 244 l 46 29 z m 569 164 b 382 233 494 164 431 188 l 807 688 b 846 504 832 638 846 576 l 846 493 b 569 164 846 293 739 164 z m 288 492 l 288 503 b 567 829 288 704 393 829 b 740 772 636 829 696 808 l 319 322 b 288 492 299 369 288 425 z m 481 1060 l 632 1060 l 772 1253 l 554 1253 z "},"Ŕ":{"ha":933,"x_min":0,"x_max":0,"o":"m 368 1060 l 519 1060 l 660 1253 l 442 1253 z m 107 0 l 331 0 l 331 383 l 428 383 l 665 0 l 904 0 l 642 422 b 846 686 758 457 846 536 l 846 692 b 463 993 846 897 697 993 l 107 993 z m 331 536 l 331 821 l 457 821 b 626 685 565 821 626 786 l 626 679 b 457 536 626 583 569 536 z "},"Ř":{"ha":933,"x_min":0,"x_max":0,"o":"m 365 1060 l 536 1060 l 692 1253 l 550 1253 l 456 1181 l 360 1253 l 215 1253 z m 107 0 l 331 0 l 331 383 l 428 383 l 665 0 l 904 0 l 642 422 b 846 686 758 457 846 536 l 846 692 b 463 993 846 897 697 993 l 107 993 z m 331 536 l 331 821 l 457 821 b 626 685 565 821 626 786 l 626 679 b 457 536 626 583 569 536 z "},"Ŗ":{"ha":933,"x_min":0,"x_max":0,"o":"m 450 -317 l 582 -72 l 401 -43 l 336 -279 z m 107 0 l 331 0 l 331 383 l 428 383 l 665 0 l 904 0 l 642 422 b 846 686 758 457 846 536 l 846 692 b 463 993 846 897 697 993 l 107 993 z m 331 536 l 331 821 l 457 821 b 626 685 565 821 626 786 l 626 679 b 457 536 626 583 569 536 z "},"Ś":{"ha":889,"x_min":0,"x_max":0,"o":"m 454 -15 b 833 301 689 -15 833 125 b 469 603 833 507 710 572 b 285 729 317 625 285 658 b 433 842 285 796 335 842 b 599 710 532 842 585 800 l 806 710 b 433 1007 788 907 657 1007 b 72 711 214 1007 72 881 b 431 410 72 519 176 443 b 618 281 576 388 618 360 b 454 149 618 203 553 149 b 260 311 307 149 269 222 l 44 311 b 454 -15 57 113 182 -15 z m 350 1060 l 501 1060 l 642 1253 l 424 1253 z "},"Ş":{"ha":889,"x_min":0,"x_max":0,"o":"m 415 -308 b 574 -183 507 -308 574 -264 b 429 -67 574 -96 503 -58 l 460 -15 b 833 301 692 -12 833 126 b 469 603 833 507 710 572 b 285 729 317 625 285 658 b 433 842 285 796 335 842 b 599 710 532 842 585 800 l 806 710 b 433 1007 788 907 657 1007 b 72 711 214 1007 72 881 b 431 410 72 519 176 443 b 618 281 576 388 618 360 b 454 149 618 203 553 149 b 260 311 307 149 269 222 l 44 311 b 372 -11 56 133 157 13 l 317 -103 l 367 -151 b 410 -137 375 -144 389 -137 b 457 -181 439 -137 457 -156 b 408 -226 457 -207 439 -226 b 356 -183 376 -226 360 -206 l 253 -183 b 415 -308 263 -261 322 -308 z "},"Ŝ":{"ha":889,"x_min":0,"x_max":0,"o":"m 197 1060 l 339 1060 l 435 1133 l 529 1060 l 674 1060 l 524 1253 l 353 1253 z m 454 -15 b 833 301 689 -15 833 125 b 469 603 833 507 710 572 b 285 729 317 625 285 658 b 433 842 285 796 335 842 b 599 710 532 842 585 800 l 806 710 b 433 1007 788 907 657 1007 b 72 711 214 1007 72 881 b 431 410 72 519 176 443 b 618 281 576 388 618 360 b 454 149 618 203 553 149 b 260 311 307 149 269 222 l 44 311 b 454 -15 57 113 182 -15 z "},"Ș":{"ha":892,"x_min":0,"x_max":0,"o":"m 406 -317 l 538 -72 l 357 -43 l 292 -279 z m 454 -15 b 833 301 689 -15 833 125 b 469 603 833 507 710 572 b 285 729 317 625 285 658 b 433 842 285 796 335 842 b 599 710 532 842 585 800 l 806 710 b 433 1007 788 907 657 1007 b 72 711 214 1007 72 881 b 431 410 72 519 176 443 b 618 281 576 388 618 360 b 454 149 618 203 553 149 b 260 311 307 149 269 222 l 44 311 b 454 -15 57 113 182 -15 z "},"Ť":{"ha":829,"x_min":0,"x_max":0,"o":"m 325 1060 l 496 1060 l 651 1253 l 510 1253 l 415 1181 l 319 1253 l 175 1253 z m 301 0 l 528 0 l 528 818 l 796 818 l 796 993 l 33 993 l 33 818 l 301 818 z "},"Ţ":{"ha":831,"x_min":0,"x_max":0,"o":"m 383 -317 l 515 -72 l 335 -43 l 269 -279 z m 301 0 l 528 0 l 528 818 l 796 818 l 796 993 l 33 993 l 33 818 l 301 818 z "},"Ŧ":{"ha":829,"x_min":0,"x_max":0,"o":"m 117 417 l 301 417 l 301 0 l 528 0 l 528 417 l 713 417 l 713 564 l 528 564 l 528 818 l 796 818 l 796 993 l 33 993 l 33 818 l 301 818 l 301 564 l 117 564 z "},"Ŭ":{"ha":1026,"x_min":0,"x_max":0,"o":"m 508 -15 b 928 396 776 -15 928 125 l 928 993 l 701 993 l 701 410 b 510 164 701 228 643 164 b 325 401 374 164 325 236 l 325 993 l 99 993 l 99 388 b 508 -15 99 124 247 -15 z m 510 1051 b 725 1254 631 1051 717 1132 l 592 1254 b 510 1182 583 1210 556 1182 b 432 1254 464 1182 439 1210 l 297 1254 b 510 1051 304 1132 386 1051 z "},"Ű":{"ha":1026,"x_min":0,"x_max":0,"o":"m 306 1060 l 442 1060 l 543 1253 l 360 1253 z m 556 1060 l 690 1060 l 793 1253 l 610 1253 z m 508 -15 b 928 396 776 -15 928 125 l 928 993 l 701 993 l 701 410 b 510 164 701 228 643 164 b 325 401 374 164 325 236 l 325 993 l 99 993 l 99 388 b 508 -15 99 124 247 -15 z "},"Ū":{"ha":1026,"x_min":0,"x_max":0,"o":"m 508 -15 b 928 396 776 -15 928 125 l 928 993 l 701 993 l 701 410 b 510 164 701 228 643 164 b 325 401 374 164 325 236 l 325 993 l 99 993 l 99 388 b 508 -15 99 124 247 -15 z m 301 1079 l 721 1079 l 721 1206 l 301 1206 z "},"Ų":{"ha":1026,"x_min":0,"x_max":0,"o":"m 565 -253 b 681 -232 619 -253 657 -243 l 681 -128 b 628 -137 665 -135 647 -137 b 582 -96 600 -137 582 -124 b 724 25 582 -37 647 -11 b 928 396 853 83 928 206 l 928 993 l 701 993 l 701 410 b 510 164 701 228 643 164 b 325 401 374 164 325 236 l 325 993 l 99 993 l 99 388 b 494 -15 99 128 242 -11 b 407 -142 447 -44 407 -87 b 565 -253 407 -211 469 -253 z "},"Ů":{"ha":1026,"x_min":0,"x_max":0,"o":"m 508 -15 b 928 396 776 -15 928 125 l 928 993 l 701 993 l 701 410 b 510 164 701 228 643 164 b 325 401 374 164 325 236 l 325 993 l 99 993 l 99 388 b 508 -15 99 124 247 -15 z m 511 1094 b 443 1168 471 1094 443 1125 b 511 1243 443 1211 471 1243 b 579 1168 550 1243 579 1211 b 511 1094 579 1125 550 1094 z m 511 1014 b 671 1168 599 1014 671 1083 b 511 1324 671 1254 599 1324 b 351 1168 424 1324 351 1254 b 511 1014 351 1083 424 1014 z "},"Ũ":{"ha":1026,"x_min":0,"x_max":0,"o":"m 508 -15 b 928 396 776 -15 928 125 l 928 993 l 701 993 l 701 410 b 510 164 701 228 643 164 b 325 401 374 164 325 236 l 325 993 l 99 993 l 99 388 b 508 -15 99 124 247 -15 z m 596 1061 b 756 1254 675 1061 744 1126 l 635 1254 b 588 1203 629 1225 613 1203 b 426 1256 543 1203 494 1256 b 268 1061 344 1256 278 1189 l 388 1061 b 436 1113 393 1090 411 1113 b 596 1061 476 1113 524 1061 z "},"Ẃ":{"ha":1349,"x_min":0,"x_max":0,"o":"m 601 1060 l 753 1060 l 893 1253 l 675 1253 z m 271 0 l 488 0 l 669 686 l 849 0 l 1078 0 l 1319 993 l 1111 993 l 950 303 l 774 993 l 582 993 l 413 307 l 257 993 l 29 993 z "},"Ŵ":{"ha":1349,"x_min":0,"x_max":0,"o":"m 436 1060 l 578 1060 l 674 1133 l 768 1060 l 913 1060 l 763 1253 l 592 1253 z m 271 0 l 488 0 l 669 686 l 849 0 l 1078 0 l 1319 993 l 1111 993 l 950 303 l 774 993 l 582 993 l 413 307 l 257 993 l 29 993 z "},"Ẅ":{"ha":1349,"x_min":0,"x_max":0,"o":"m 528 1068 b 631 1169 583 1068 631 1114 b 528 1269 631 1225 583 1269 b 425 1169 471 1269 425 1225 b 528 1068 425 1114 471 1068 z m 826 1068 b 929 1169 883 1068 929 1114 b 826 1269 929 1225 883 1269 b 725 1169 771 1269 725 1225 b 826 1068 725 1114 771 1068 z m 271 0 l 488 0 l 669 686 l 849 0 l 1078 0 l 1319 993 l 1111 993 l 950 303 l 774 993 l 582 993 l 413 307 l 257 993 l 29 993 z "},"Ẁ":{"ha":1349,"x_min":0,"x_max":0,"o":"m 613 1060 l 764 1060 l 692 1253 l 475 1253 z m 271 0 l 488 0 l 669 686 l 849 0 l 1078 0 l 1319 993 l 1111 993 l 950 303 l 774 993 l 582 993 l 413 307 l 257 993 l 29 993 z "},"Ŷ":{"ha":900,"x_min":0,"x_max":0,"o":"m 346 0 l 572 0 l 572 428 l 882 993 l 664 993 l 467 613 l 265 993 l 18 993 l 346 428 z m 217 1060 l 358 1060 l 454 1133 l 549 1060 l 693 1060 l 543 1253 l 372 1253 z "},"Ỳ":{"ha":900,"x_min":0,"x_max":0,"o":"m 346 0 l 572 0 l 572 428 l 882 993 l 664 993 l 467 613 l 265 993 l 18 993 l 346 428 z m 397 1060 l 549 1060 l 476 1253 l 260 1253 z "},"Ź":{"ha":854,"x_min":0,"x_max":0,"o":"m 346 1060 l 497 1060 l 638 1253 l 419 1253 z m 25 0 l 800 0 l 800 176 l 353 176 l 817 967 l 817 993 l 78 993 l 78 818 l 499 818 l 25 28 z "},"Ż":{"ha":854,"x_min":0,"x_max":0,"o":"m 25 0 l 800 0 l 800 176 l 353 176 l 817 967 l 817 993 l 78 993 l 78 818 l 499 818 l 25 28 z m 433 1067 b 544 1174 496 1067 544 1114 b 433 1281 544 1233 496 1281 b 321 1174 369 1281 321 1233 b 433 1067 321 1114 369 1067 z "},"ă":{"ha":783,"x_min":0,"x_max":0,"o":"m 285 -15 b 504 88 399 -15 463 29 l 504 0 l 700 0 l 700 474 b 396 743 700 671 574 743 b 69 494 218 743 82 667 l 260 494 b 383 597 268 557 304 597 b 501 464 475 597 501 550 l 501 435 l 419 435 b 42 201 197 435 42 371 b 285 -15 42 49 153 -15 z m 344 125 b 239 213 271 125 239 160 b 424 315 239 290 307 315 l 501 315 l 501 254 b 344 125 501 174 433 125 z m 393 831 b 607 1038 511 831 600 910 l 478 1038 b 393 963 469 992 442 963 b 314 1038 344 963 319 992 l 182 1038 b 393 831 189 910 272 831 z "},"ā":{"ha":783,"x_min":0,"x_max":0,"o":"m 285 -15 b 504 88 399 -15 463 29 l 504 0 l 700 0 l 700 474 b 396 743 700 671 574 743 b 69 494 218 743 82 667 l 260 494 b 383 597 268 557 304 597 b 501 464 475 597 501 550 l 501 435 l 419 435 b 42 201 197 435 42 371 b 285 -15 42 49 153 -15 z m 344 125 b 239 213 271 125 239 160 b 424 315 239 290 307 315 l 501 315 l 501 254 b 344 125 501 174 433 125 z m 192 868 l 596 868 l 596 989 l 192 989 z "},"ą":{"ha":783,"x_min":0,"x_max":0,"o":"m 597 -253 b 710 -232 650 -253 685 -243 l 710 -132 b 657 -142 694 -139 676 -142 b 611 -99 628 -142 611 -128 b 700 11 611 -64 638 -29 l 700 474 b 396 743 700 671 574 743 b 69 494 218 743 82 667 l 260 494 b 383 597 268 557 304 597 b 501 464 475 597 501 550 l 501 435 l 419 435 b 42 201 197 435 42 371 b 285 -15 42 49 153 -15 b 504 88 399 -15 463 29 l 504 0 l 557 0 b 442 -142 497 -28 442 -75 b 597 -253 442 -211 503 -253 z m 344 125 b 239 213 271 125 239 160 b 424 315 239 290 307 315 l 501 315 l 501 254 b 344 125 501 174 433 125 z "},"ǻ":{"ha":783,"x_min":0,"x_max":0,"o":"m 285 -15 b 504 88 399 -15 463 29 l 504 0 l 700 0 l 700 474 b 396 743 700 671 574 743 b 69 494 218 743 82 667 l 260 494 b 383 597 268 557 304 597 b 501 464 475 597 501 550 l 501 435 l 419 435 b 42 201 197 435 42 371 b 285 -15 42 49 153 -15 z m 344 125 b 239 213 271 125 239 160 b 424 315 239 290 307 315 l 501 315 l 501 254 b 344 125 501 174 433 125 z m 396 878 b 329 951 357 878 329 908 b 396 1025 329 993 357 1025 b 463 951 435 1025 463 993 b 396 878 463 908 435 878 z m 396 797 b 554 951 483 797 554 867 b 396 1104 554 1035 483 1104 b 238 951 308 1104 238 1035 b 396 797 238 867 308 797 z m 326 1150 l 478 1150 l 618 1343 l 400 1343 z "},"ǽ":{"ha":1247,"x_min":0,"x_max":0,"o":"m 865 -15 b 1201 229 1057 -15 1179 72 l 1013 229 b 867 128 1001 168 957 128 b 694 319 758 128 701 197 l 1204 319 l 1204 374 b 858 743 1204 636 1042 743 b 621 646 760 743 679 708 b 389 743 576 715 496 743 b 69 494 219 743 82 667 l 260 494 b 385 597 268 558 304 597 b 503 464 472 597 503 550 l 503 439 l 417 439 b 42 201 196 439 42 372 b 300 -15 42 49 158 -15 b 586 119 439 -15 524 32 b 865 -15 643 32 738 -15 z m 344 125 b 239 217 271 125 239 160 b 421 318 239 294 308 318 l 503 318 l 503 254 b 344 125 503 174 438 125 z m 697 439 b 858 604 710 543 769 604 b 1008 439 950 604 1000 551 z m 558 825 l 704 825 l 849 1046 l 638 1046 z "},"ć":{"ha":803,"x_min":0,"x_max":0,"o":"m 333 825 l 479 825 l 624 1046 l 413 1046 z m 418 -15 b 765 276 629 -15 754 104 l 583 276 b 428 136 574 183 508 136 b 250 357 315 136 250 211 l 250 368 b 424 585 250 507 319 585 b 571 461 506 585 557 546 l 761 461 b 419 743 743 669 588 743 b 44 365 213 743 44 600 l 44 354 b 418 -15 44 117 206 -15 z "},"č":{"ha":803,"x_min":0,"x_max":0,"o":"m 338 826 l 489 826 l 651 1043 l 513 1043 l 417 956 l 321 1043 l 179 1043 z m 418 -15 b 765 276 629 -15 754 104 l 583 276 b 428 136 574 183 508 136 b 250 357 315 136 250 211 l 250 368 b 424 585 250 507 319 585 b 571 461 506 585 557 546 l 761 461 b 419 743 743 669 588 743 b 44 365 213 743 44 600 l 44 354 b 418 -15 44 117 206 -15 z "},"ĉ":{"ha":803,"x_min":0,"x_max":0,"o":"m 179 826 l 317 826 l 414 914 l 510 826 l 651 826 l 493 1043 l 342 1043 z m 418 -15 b 765 276 629 -15 754 104 l 583 276 b 428 136 574 183 508 136 b 250 357 315 136 250 211 l 250 368 b 424 585 250 507 319 585 b 571 461 506 585 557 546 l 761 461 b 419 743 743 669 588 743 b 44 365 213 743 44 600 l 44 354 b 418 -15 44 117 206 -15 z "},"ċ":{"ha":803,"x_min":0,"x_max":0,"o":"m 418 -15 b 765 276 629 -15 754 104 l 583 276 b 428 136 574 183 508 136 b 250 357 315 136 250 211 l 250 368 b 424 585 250 507 319 585 b 571 461 506 585 557 546 l 761 461 b 419 743 743 669 588 743 b 44 365 213 743 44 600 l 44 354 b 418 -15 44 117 206 -15 z m 417 831 b 529 938 479 831 529 878 b 417 1044 529 999 479 1044 b 304 938 353 1044 304 999 b 417 831 304 878 353 831 z "},"ď":{"ha":885,"x_min":0,"x_max":0,"o":"m 851 814 l 963 814 l 1031 1056 l 865 1056 z m 361 -15 b 594 121 468 -15 557 47 l 594 0 l 794 0 l 794 1056 l 594 1056 l 594 618 b 365 743 554 692 482 743 b 46 364 183 743 46 603 l 46 353 b 361 -15 46 111 185 -15 z m 421 142 b 251 357 321 142 251 213 l 251 368 b 426 589 251 513 314 589 b 600 371 536 589 600 515 l 600 360 b 421 142 600 213 526 142 z "},"ĕ":{"ha":815,"x_min":0,"x_max":0,"o":"m 424 -15 b 771 229 622 -15 747 72 l 581 229 b 429 128 568 168 522 128 b 249 318 319 128 254 197 l 772 318 l 772 374 b 418 743 772 633 606 743 b 44 365 207 743 44 594 l 44 354 b 424 -15 44 122 204 -15 z m 251 442 b 418 604 267 544 328 604 b 576 442 514 604 569 551 z m 404 831 b 618 1038 522 831 611 910 l 489 1038 b 404 963 481 992 453 963 b 325 1038 356 963 331 992 l 193 1038 b 404 831 200 910 283 831 z "},"ě":{"ha":815,"x_min":0,"x_max":0,"o":"m 336 826 l 488 826 l 650 1043 l 511 1043 l 415 956 l 319 1043 l 178 1043 z m 424 -15 b 771 229 622 -15 747 72 l 581 229 b 429 128 568 168 522 128 b 249 318 319 128 254 197 l 772 318 l 772 374 b 418 743 772 633 606 743 b 44 365 207 743 44 594 l 44 354 b 424 -15 44 122 204 -15 z m 251 442 b 418 604 267 544 328 604 b 576 442 514 604 569 551 z "},"ė":{"ha":815,"x_min":0,"x_max":0,"o":"m 424 -15 b 771 229 622 -15 747 72 l 581 229 b 429 128 568 168 522 128 b 249 318 319 128 254 197 l 772 318 l 772 374 b 418 743 772 633 606 743 b 44 365 207 743 44 594 l 44 354 b 424 -15 44 122 204 -15 z m 251 442 b 418 604 267 544 328 604 b 576 442 514 604 569 551 z m 415 831 b 528 938 478 831 528 878 b 415 1044 528 999 478 1044 b 303 938 351 1044 303 999 b 415 831 303 878 351 831 z "},"ē":{"ha":815,"x_min":0,"x_max":0,"o":"m 424 -15 b 771 229 622 -15 747 72 l 581 229 b 429 128 568 168 522 128 b 249 318 319 128 254 197 l 772 318 l 772 374 b 418 743 772 633 606 743 b 44 365 207 743 44 594 l 44 354 b 424 -15 44 122 204 -15 z m 251 442 b 418 604 267 544 328 604 b 576 442 514 604 569 551 z m 211 868 l 615 868 l 615 989 l 211 989 z "},"ę":{"ha":815,"x_min":0,"x_max":0,"o":"m 554 -253 b 664 -232 610 -253 640 -243 l 664 -132 b 611 -142 649 -139 631 -142 b 565 -99 583 -142 565 -128 b 661 39 565 -57 604 -15 b 771 229 700 75 756 129 l 581 229 b 429 128 568 168 522 128 b 249 318 319 128 254 197 l 772 318 l 772 374 b 418 743 772 633 606 743 b 44 365 207 743 44 594 l 44 354 b 424 -15 44 122 204 -15 b 504 -10 449 -15 481 -14 b 397 -143 450 -40 397 -85 b 554 -253 397 -212 460 -253 z m 251 442 b 418 604 267 544 328 604 b 576 442 514 604 569 551 z "},"ğ":{"ha":883,"x_min":0,"x_max":0,"o":"m 411 -268 b 794 57 650 -268 793 -158 l 794 726 l 594 726 l 594 618 b 364 743 553 692 482 743 b 44 389 183 743 44 597 l 44 379 b 361 32 44 164 185 32 b 594 167 468 32 554 96 l 594 57 b 411 -121 594 -57 533 -121 b 250 -15 308 -121 263 -79 l 50 -15 b 411 -268 69 -165 176 -268 z m 421 183 b 250 379 321 183 250 258 l 250 390 b 425 590 250 510 313 590 b 600 392 535 590 600 515 l 600 382 b 421 183 600 258 526 183 z m 417 831 b 631 1038 535 831 624 910 l 501 1038 b 417 963 493 992 465 963 b 338 1038 368 963 343 992 l 206 1038 b 417 831 213 910 296 831 z "},"ĝ":{"ha":883,"x_min":0,"x_max":0,"o":"m 182 826 l 319 826 l 417 914 l 513 826 l 654 826 l 496 1043 l 344 1043 z m 411 -268 b 794 57 650 -268 793 -158 l 794 726 l 594 726 l 594 618 b 364 743 553 692 482 743 b 44 389 183 743 44 597 l 44 379 b 361 32 44 164 185 32 b 594 167 468 32 554 96 l 594 57 b 411 -121 594 -57 533 -121 b 250 -15 308 -121 263 -79 l 50 -15 b 411 -268 69 -165 176 -268 z m 421 183 b 250 379 321 183 250 258 l 250 390 b 425 590 250 510 313 590 b 600 392 535 590 600 515 l 600 382 b 421 183 600 258 526 183 z "},"ģ":{"ha":883,"x_min":0,"x_max":0,"o":"m 511 804 l 576 1040 l 463 1076 l 331 833 z m 411 -268 b 794 57 650 -268 793 -158 l 794 726 l 594 726 l 594 618 b 364 743 553 692 482 743 b 44 389 183 743 44 597 l 44 379 b 361 32 44 164 185 32 b 594 167 468 32 554 96 l 594 57 b 411 -121 594 -57 533 -121 b 250 -15 308 -121 263 -79 l 50 -15 b 411 -268 69 -165 176 -268 z m 421 183 b 250 379 321 183 250 258 l 250 390 b 425 590 250 510 313 590 b 600 392 535 590 600 515 l 600 382 b 421 183 600 258 526 183 z "},"ġ":{"ha":883,"x_min":0,"x_max":0,"o":"m 411 -268 b 794 57 650 -268 793 -158 l 794 726 l 594 726 l 594 618 b 364 743 553 692 482 743 b 44 389 183 743 44 597 l 44 379 b 361 32 44 164 185 32 b 594 167 468 32 554 96 l 594 57 b 411 -121 594 -57 533 -121 b 250 -15 308 -121 263 -79 l 50 -15 b 411 -268 69 -165 176 -268 z m 421 183 b 250 379 321 183 250 258 l 250 390 b 425 590 250 510 313 590 b 600 392 535 590 600 515 l 600 382 b 421 183 600 258 526 183 z m 418 831 b 531 938 481 831 531 878 b 418 1044 531 999 481 1044 b 306 938 354 1044 306 999 b 418 831 306 878 354 831 z "},"ħ":{"ha":854,"x_min":0,"x_max":0,"o":"m 1 829 l 89 829 l 89 0 l 290 0 l 290 419 b 442 579 290 526 356 579 b 569 433 531 579 569 532 l 569 0 l 771 0 l 771 463 b 526 743 771 657 669 743 b 290 611 406 743 326 683 l 290 829 l 517 829 l 517 944 l 290 944 l 290 1056 l 89 1056 l 89 944 l 1 944 z "},"ĥ":{"ha":854,"x_min":0,"x_max":0,"o":"m 89 0 l 290 0 l 290 419 b 442 579 290 526 356 579 b 569 433 531 579 569 532 l 569 0 l 771 0 l 771 463 b 526 743 771 657 669 743 b 290 611 406 743 326 683 l 290 1056 l 89 1056 z "},"ĭ":{"ha":390,"x_min":0,"x_max":0,"o":"m 94 0 l 294 0 l 294 726 l 94 726 z m 194 831 b 408 1038 313 831 401 910 l 279 1038 b 194 963 271 992 243 963 b 115 1038 146 963 121 992 l -17 1038 b 194 831 -10 910 74 831 z "},"ī":{"ha":390,"x_min":0,"x_max":0,"o":"m 38 868 l 351 868 l 351 989 l 38 989 z m 94 0 l 294 0 l 294 726 l 94 726 z "},"į":{"ha":390,"x_min":0,"x_max":0,"o":"m 197 -253 b 308 -232 253 -253 285 -243 l 308 -132 b 257 -142 294 -139 275 -142 b 210 -99 228 -142 210 -128 b 294 10 210 -64 233 -32 l 294 726 l 94 726 l 94 0 l 157 0 b 42 -140 97 -29 42 -75 b 197 -253 42 -211 103 -253 z m 193 825 b 308 935 258 825 308 872 b 193 1044 308 997 258 1044 b 79 935 129 1044 79 997 b 193 825 79 872 129 825 z "},"ĩ":{"ha":390,"x_min":0,"x_max":0,"o":"m 94 0 l 294 0 l 294 726 l 94 726 z m 279 831 b 435 1028 358 831 424 899 l 318 1028 b 271 976 313 997 296 976 b 111 1028 226 976 179 1028 b -42 832 29 1028 -32 960 l 74 832 b 122 883 79 861 99 883 b 279 831 164 883 208 831 z "},"ĵ":{"ha":390,"x_min":0,"x_max":0,"o":"m -1 -260 b 294 -12 225 -257 294 -164 l 294 726 l 94 726 l 94 -14 b -1 -110 94 -72 68 -104 z m -42 826 l 96 826 l 193 914 l 289 826 l 431 826 l 272 1043 l 121 1043 z "},"ķ":{"ha":771,"x_min":0,"x_max":0,"o":"m 89 0 l 290 0 l 290 343 l 531 0 l 758 0 l 474 396 l 738 726 l 524 726 l 290 419 l 290 1056 l 89 1056 z m 372 -317 l 504 -72 l 324 -43 l 258 -279 z "},"ĺ":{"ha":389,"x_min":0,"x_max":0,"o":"m 94 0 l 294 0 l 294 1056 l 94 1056 z "},"ľ":{"ha":389,"x_min":0,"x_max":0,"o":"m 351 814 l 463 814 l 531 1056 l 365 1056 z m 94 0 l 294 0 l 294 1056 l 94 1056 z "},"ļ":{"ha":389,"x_min":0,"x_max":0,"o":"m 165 -317 l 297 -72 l 117 -43 l 51 -279 z m 94 0 l 294 0 l 294 1056 l 94 1056 z "},"ŀ":{"ha":568,"x_min":0,"x_max":0,"o":"m 94 0 l 294 0 l 294 1056 l 94 1056 z m 475 381 b 600 503 546 381 600 435 b 475 624 600 569 546 624 b 351 503 406 624 351 569 b 475 381 351 435 406 381 z "},"ń":{"ha":854,"x_min":0,"x_max":0,"o":"m 346 825 l 492 825 l 636 1046 l 425 1046 z m 89 0 l 290 0 l 290 419 b 442 579 290 526 356 579 b 569 433 531 579 569 532 l 569 0 l 771 0 l 771 463 b 526 743 771 657 669 743 b 290 611 406 743 326 683 l 290 726 l 89 726 z "},"ŉ":{"ha":958,"x_min":0,"x_max":0,"o":"m 65 625 l 244 946 l 65 1010 l -50 672 z m 193 0 l 394 0 l 394 419 b 546 579 394 526 460 579 b 674 433 635 579 674 532 l 674 0 l 875 0 l 875 463 b 631 743 875 657 774 743 b 394 611 510 743 431 683 l 394 726 l 193 726 z "},"ň":{"ha":854,"x_min":0,"x_max":0,"o":"m 349 826 l 500 826 l 663 1043 l 524 1043 l 428 956 l 332 1043 l 190 1043 z m 89 0 l 290 0 l 290 419 b 442 579 290 526 356 579 b 569 433 531 579 569 532 l 569 0 l 771 0 l 771 463 b 526 743 771 657 669 743 b 290 611 406 743 326 683 l 290 726 l 89 726 z "},"ņ":{"ha":854,"x_min":0,"x_max":0,"o":"m 396 -317 l 528 -72 l 347 -43 l 282 -279 z m 89 0 l 290 0 l 290 419 b 442 579 290 526 356 579 b 569 433 531 579 569 532 l 569 0 l 771 0 l 771 463 b 526 743 771 657 669 743 b 290 611 406 743 326 683 l 290 726 l 89 726 z "},"ŏ":{"ha":856,"x_min":0,"x_max":0,"o":"m 428 138 b 250 360 314 138 250 221 l 250 371 b 428 590 250 510 317 590 b 606 368 540 590 606 507 l 606 358 b 428 138 606 221 540 138 z m 426 -15 b 810 360 644 -15 810 131 l 810 371 b 428 743 810 597 646 743 b 44 367 210 743 44 594 l 44 356 b 426 -15 44 129 210 -15 z m 425 831 b 639 1038 543 831 632 910 l 510 1038 b 425 963 501 992 474 963 b 346 1038 376 963 351 992 l 214 1038 b 425 831 221 910 304 831 z "},"ő":{"ha":856,"x_min":0,"x_max":0,"o":"m 235 825 l 358 825 l 464 1046 l 293 1046 z m 468 825 l 593 825 l 699 1046 l 526 1046 z m 428 138 b 250 360 314 138 250 221 l 250 371 b 428 590 250 510 317 590 b 606 368 540 590 606 507 l 606 358 b 428 138 606 221 540 138 z m 426 -15 b 810 360 644 -15 810 131 l 810 371 b 428 743 810 597 646 743 b 44 367 210 743 44 594 l 44 356 b 426 -15 44 129 210 -15 z "},"ō":{"ha":856,"x_min":0,"x_max":0,"o":"m 224 868 l 628 868 l 628 989 l 224 989 z m 428 138 b 250 360 314 138 250 221 l 250 371 b 428 590 250 510 317 590 b 606 368 540 590 606 507 l 606 358 b 428 138 606 221 540 138 z m 426 -15 b 810 360 644 -15 810 131 l 810 371 b 428 743 810 597 646 743 b 44 367 210 743 44 594 l 44 356 b 426 -15 44 129 210 -15 z "},"ǿ":{"ha":856,"x_min":0,"x_max":0,"o":"m 99 -53 l 196 51 b 426 -15 258 8 338 -15 b 810 360 644 -15 810 131 l 810 371 b 721 619 810 472 776 557 l 811 717 l 743 778 l 651 679 b 428 743 590 721 513 743 b 44 367 210 743 44 594 l 44 356 b 128 113 44 257 75 175 l 31 8 z m 428 136 b 311 176 379 136 340 150 l 589 476 b 607 368 600 446 607 410 l 607 358 b 428 136 607 221 542 136 z m 249 360 l 249 371 b 428 590 249 510 315 590 b 536 554 471 590 508 578 l 263 258 b 249 360 253 288 249 321 z m 346 825 l 492 825 l 636 1046 l 425 1046 z "},"ŕ":{"ha":568,"x_min":0,"x_max":0,"o":"m 229 825 l 375 825 l 519 1046 l 308 1046 z m 89 0 l 290 0 l 290 364 b 525 550 290 503 376 551 l 525 738 b 290 588 407 736 336 685 l 290 726 l 89 726 z "},"ř":{"ha":568,"x_min":0,"x_max":0,"o":"m 232 826 l 383 826 l 546 1043 l 407 1043 l 311 956 l 215 1043 l 74 1043 z m 89 0 l 290 0 l 290 364 b 525 550 290 503 376 551 l 525 738 b 290 588 407 736 336 685 l 290 726 l 89 726 z "},"ŗ":{"ha":568,"x_min":0,"x_max":0,"o":"m 161 -317 l 293 -72 l 113 -43 l 47 -279 z m 89 0 l 290 0 l 290 364 b 525 550 290 503 376 551 l 525 738 b 290 588 407 736 336 685 l 290 726 l 89 726 z "},"ś":{"ha":697,"x_min":0,"x_max":0,"o":"m 265 825 l 411 825 l 556 1046 l 344 1046 z m 353 -15 b 658 224 544 -15 658 67 b 376 451 658 379 558 425 b 236 531 271 467 236 485 b 339 606 236 575 274 606 b 453 518 408 606 442 578 l 638 518 b 338 743 619 685 499 743 b 50 517 189 743 50 668 b 318 290 50 375 125 319 b 465 204 422 275 465 254 b 351 125 465 154 429 125 b 224 228 264 125 232 163 l 36 228 b 353 -15 43 71 157 -15 z "},"ş":{"ha":697,"x_min":0,"x_max":0,"o":"m 326 -308 b 485 -183 418 -308 485 -264 b 340 -67 485 -96 414 -58 l 371 -15 b 658 224 551 -10 658 72 b 376 451 658 379 558 425 b 236 531 271 467 236 485 b 339 606 236 575 274 606 b 453 518 408 606 442 578 l 638 518 b 338 743 619 685 499 743 b 50 517 189 743 50 668 b 318 290 50 375 125 319 b 465 204 422 275 465 254 b 351 125 465 154 429 125 b 224 228 264 125 232 163 l 36 228 b 283 -11 42 90 131 7 l 228 -103 l 278 -151 b 321 -137 286 -144 300 -137 b 368 -181 350 -137 368 -156 b 319 -226 368 -207 350 -226 b 267 -183 288 -226 271 -206 l 164 -183 b 326 -308 174 -261 233 -308 z "},"ŝ":{"ha":697,"x_min":0,"x_max":0,"o":"m 108 826 l 246 826 l 343 914 l 439 826 l 581 826 l 422 1043 l 271 1043 z m 353 -15 b 658 224 544 -15 658 67 b 376 451 658 379 558 425 b 236 531 271 467 236 485 b 339 606 236 575 274 606 b 453 518 408 606 442 578 l 638 518 b 338 743 619 685 499 743 b 50 517 189 743 50 668 b 318 290 50 375 125 319 b 465 204 422 275 465 254 b 351 125 465 154 429 125 b 224 228 264 125 232 163 l 36 228 b 353 -15 43 71 157 -15 z "},"ș":{"ha":697,"x_min":0,"x_max":0,"o":"m 314 -317 l 446 -72 l 265 -43 l 200 -279 z m 351 -15 b 657 224 543 -15 657 67 b 375 451 657 379 557 425 b 235 531 269 467 235 485 b 338 606 235 575 272 606 b 451 518 407 606 440 578 l 636 518 b 336 743 618 685 497 743 b 49 517 188 743 49 668 b 317 290 49 375 124 319 b 464 204 421 275 464 254 b 350 125 464 154 428 125 b 222 228 263 125 231 163 l 35 228 b 351 -15 42 71 156 -15 z "},"ŧ":{"ha":524,"x_min":0,"x_max":0,"o":"m 26 347 l 119 347 l 119 215 b 353 -14 119 64 201 -14 b 476 4 408 -14 447 -4 l 476 160 b 400 147 454 151 431 147 b 319 233 349 147 319 175 l 319 347 l 472 347 l 472 465 l 319 465 l 319 583 l 472 583 l 472 726 l 319 726 l 319 883 l 119 883 l 119 726 l 26 726 l 26 583 l 119 583 l 119 465 l 26 465 z "},"ť":{"ha":524,"x_min":0,"x_max":0,"o":"m 396 814 l 507 814 l 575 1056 l 410 1056 z m 354 -14 b 476 6 408 -14 449 -4 l 476 161 b 400 147 453 151 431 147 b 319 233 349 147 319 175 l 319 583 l 472 583 l 472 726 l 319 726 l 319 883 l 119 883 l 119 726 l 26 726 l 26 583 l 119 583 l 119 215 b 354 -14 119 64 201 -14 z "},"ţ":{"ha":524,"x_min":0,"x_max":0,"o":"m 251 -317 l 383 -72 l 203 -43 l 138 -279 z m 354 -14 b 476 6 408 -14 449 -4 l 476 161 b 400 147 453 151 431 147 b 319 233 349 147 319 175 l 319 583 l 472 583 l 472 726 l 319 726 l 319 883 l 119 883 l 119 726 l 26 726 l 26 583 l 119 583 l 119 215 b 354 -14 119 64 201 -14 z "},"ŭ":{"ha":850,"x_min":0,"x_max":0,"o":"m 331 -15 b 561 114 450 -15 524 40 l 561 0 l 761 0 l 761 726 l 561 726 l 561 300 b 410 140 561 193 494 140 b 283 286 324 140 283 188 l 283 726 l 83 726 l 83 258 b 331 -15 83 68 189 -15 z m 422 831 b 636 1038 540 831 629 910 l 507 1038 b 422 963 499 992 471 963 b 343 1038 374 963 349 992 l 211 1038 b 422 831 218 910 301 831 z "},"ű":{"ha":850,"x_min":0,"x_max":0,"o":"m 331 -15 b 561 114 450 -15 524 40 l 561 0 l 761 0 l 761 726 l 561 726 l 561 300 b 410 140 561 193 494 140 b 283 286 324 140 283 188 l 283 726 l 83 726 l 83 258 b 331 -15 83 68 189 -15 z m 232 825 l 356 825 l 461 1046 l 290 1046 z m 465 825 l 590 825 l 696 1046 l 524 1046 z "},"ū":{"ha":850,"x_min":0,"x_max":0,"o":"m 331 -15 b 561 114 450 -15 524 40 l 561 0 l 761 0 l 761 726 l 561 726 l 561 300 b 410 140 561 193 494 140 b 283 286 324 140 283 188 l 283 726 l 83 726 l 83 258 b 331 -15 83 68 189 -15 z m 221 868 l 625 868 l 625 989 l 221 989 z "},"ų":{"ha":850,"x_min":0,"x_max":0,"o":"m 661 -253 b 772 -232 714 -253 749 -243 l 772 -132 b 721 -142 758 -139 739 -142 b 674 -99 692 -142 674 -128 b 761 13 674 -64 699 -32 l 761 726 l 561 726 l 561 300 b 410 140 561 193 494 140 b 283 286 324 140 283 188 l 283 726 l 83 726 l 83 258 b 331 -15 83 68 189 -15 b 561 114 450 -15 524 40 l 561 0 l 621 0 b 506 -140 561 -29 506 -75 b 661 -253 506 -211 567 -253 z "},"ů":{"ha":850,"x_min":0,"x_max":0,"o":"m 421 858 b 354 932 382 858 354 889 b 421 1006 354 974 382 1006 b 488 932 460 1006 488 974 b 421 858 488 889 460 858 z m 421 778 b 579 932 508 778 579 847 b 421 1085 579 1015 508 1085 b 263 932 333 1085 263 1015 b 421 778 263 847 333 778 z m 331 -15 b 561 114 450 -15 524 40 l 561 0 l 761 0 l 761 726 l 561 726 l 561 300 b 410 140 561 193 494 140 b 283 286 324 140 283 188 l 283 726 l 83 726 l 83 258 b 331 -15 83 68 189 -15 z "},"ũ":{"ha":850,"x_min":0,"x_max":0,"o":"m 331 -15 b 561 114 450 -15 524 40 l 561 0 l 761 0 l 761 726 l 561 726 l 561 300 b 410 140 561 193 494 140 b 283 286 324 140 283 188 l 283 726 l 83 726 l 83 258 b 331 -15 83 68 189 -15 z m 507 831 b 663 1028 586 831 651 899 l 546 1028 b 499 976 540 997 524 976 b 339 1028 454 976 407 1028 b 186 832 257 1028 196 960 l 301 832 b 350 883 307 861 326 883 b 507 831 392 883 436 831 z "},"ẃ":{"ha":1147,"x_min":0,"x_max":0,"o":"m 511 825 l 657 825 l 801 1046 l 590 1046 z m 243 0 l 443 0 l 576 456 l 700 0 l 897 0 l 1126 726 l 933 726 l 796 238 l 668 726 l 503 726 l 363 238 l 233 726 l 22 726 z "},"ŵ":{"ha":1147,"x_min":0,"x_max":0,"o":"m 336 826 l 474 826 l 571 914 l 667 826 l 808 826 l 650 1043 l 499 1043 z m 243 0 l 443 0 l 576 456 l 700 0 l 897 0 l 1126 726 l 933 726 l 796 238 l 668 726 l 503 726 l 363 238 l 233 726 l 22 726 z "},"ẅ":{"ha":1147,"x_min":0,"x_max":0,"o":"m 442 833 b 544 933 499 833 544 878 b 442 1033 544 989 499 1033 b 339 933 385 1033 339 989 b 442 833 339 878 385 833 z m 725 833 b 828 933 782 833 828 878 b 725 1033 828 989 782 1033 b 622 933 668 1033 622 989 b 725 833 622 878 668 833 z m 243 0 l 443 0 l 576 456 l 700 0 l 897 0 l 1126 726 l 933 726 l 796 238 l 668 726 l 503 726 l 363 238 l 233 726 l 22 726 z "},"ẁ":{"ha":1147,"x_min":0,"x_max":0,"o":"m 243 0 l 443 0 l 576 456 l 700 0 l 897 0 l 1126 726 l 933 726 l 796 238 l 668 726 l 503 726 l 363 238 l 233 726 l 22 726 z m 519 825 l 665 825 l 586 1046 l 375 1046 z "},"ŷ":{"ha":788,"x_min":0,"x_max":0,"o":"m 181 -247 l 375 -247 l 768 726 l 575 726 l 413 290 l 236 726 l 19 726 l 308 74 z m 164 826 l 301 826 l 399 914 l 494 826 l 636 826 l 478 1043 l 326 1043 z "},"ỳ":{"ha":788,"x_min":0,"x_max":0,"o":"m 181 -247 l 375 -247 l 768 726 l 575 726 l 413 290 l 236 726 l 19 726 l 308 74 z m 339 825 l 485 825 l 406 1046 l 194 1046 z "},"ź":{"ha":693,"x_min":0,"x_max":0,"o":"m 274 825 l 419 825 l 564 1046 l 353 1046 z m 19 0 l 656 0 l 656 156 l 308 156 l 669 701 l 669 726 l 56 726 l 56 571 l 378 571 l 19 22 z "},"ż":{"ha":693,"x_min":0,"x_max":0,"o":"m 19 0 l 656 0 l 656 156 l 308 156 l 669 701 l 669 726 l 56 726 l 56 571 l 378 571 l 19 22 z m 356 831 b 468 938 418 831 468 878 b 356 1044 468 999 418 1044 b 243 938 292 1044 243 999 b 356 831 243 878 292 831 z "},"ﬀ":{"ha":953,"x_min":0,"x_max":0,"o":"m 122 0 l 322 0 l 322 583 l 560 583 l 560 0 l 760 0 l 760 583 l 918 583 l 918 726 l 760 726 l 760 815 b 850 911 760 871 786 911 b 924 899 879 911 904 906 l 924 1050 b 819 1064 892 1060 863 1064 b 560 810 658 1064 560 979 l 560 726 l 322 726 l 322 806 b 411 901 322 863 349 901 b 483 890 440 901 464 896 l 483 1040 b 381 1056 451 1050 424 1056 b 122 801 219 1056 122 969 l 122 726 l 26 726 l 26 583 l 122 583 z "},"ﬁ":{"ha":899,"x_min":0,"x_max":0,"o":"m 601 0 l 801 0 l 801 726 l 601 726 z m 700 825 b 815 935 765 825 815 872 b 700 1044 815 997 765 1044 b 586 935 636 1044 586 997 b 700 825 586 872 636 825 z m 122 0 l 322 0 l 322 583 l 479 583 l 479 726 l 322 726 l 322 815 b 411 911 322 871 349 911 b 479 900 440 911 461 907 l 479 1051 b 381 1064 451 1060 424 1064 b 122 810 219 1064 122 979 l 122 726 l 26 726 l 26 583 l 122 583 z "},"ﬂ":{"ha":897,"x_min":0,"x_max":0,"o":"m 122 0 l 322 0 l 322 583 l 479 583 l 479 726 l 322 726 l 322 815 b 411 911 322 871 349 911 b 479 900 440 911 461 907 l 479 1051 b 381 1064 451 1060 424 1064 b 122 810 219 1064 122 979 l 122 726 l 26 726 l 26 583 l 122 583 z m 601 0 l 801 0 l 801 1056 l 601 1056 z "},"⅛":{"ha":1074,"x_min":0,"x_max":0,"o":"m 821 -8 b 1038 146 954 -8 1038 47 b 946 267 1038 203 1007 247 b 1018 371 990 285 1018 318 b 822 511 1018 461 933 511 b 625 369 714 511 625 460 b 697 265 625 317 653 285 b 604 142 636 246 604 200 b 821 -8 604 43 689 -8 z m 821 94 b 753 157 783 94 753 118 b 821 221 753 197 783 221 b 889 158 861 221 889 197 b 821 94 889 118 860 94 z m 822 303 b 763 357 790 303 763 324 b 822 413 763 390 790 413 b 881 358 854 413 881 392 b 822 303 881 325 856 303 z m 147 489 l 300 489 l 300 993 l 168 993 l 33 903 l 33 779 l 147 847 z m 67 0 l 183 0 l 933 993 l 817 993 z "},"⅓":{"ha":1083,"x_min":0,"x_max":0,"o":"m 832 -8 b 1043 150 969 -8 1043 54 b 942 264 1043 213 1001 253 b 1031 372 997 281 1031 317 b 835 511 1031 457 958 511 b 631 344 707 511 638 442 l 764 344 b 832 406 769 383 794 406 b 888 356 869 406 888 385 b 819 301 888 321 867 301 l 781 301 l 781 213 l 821 213 b 890 156 868 213 890 193 b 824 97 890 119 868 97 b 750 165 776 97 754 126 l 617 165 b 832 -8 621 63 685 -8 z m 147 489 l 300 489 l 300 993 l 168 993 l 33 903 l 33 779 l 147 847 z m 74 0 l 190 0 l 940 993 l 824 993 z "},"⅜":{"ha":1125,"x_min":0,"x_max":0,"o":"m 872 -8 b 1089 146 1006 -8 1089 47 b 997 267 1089 203 1058 247 b 1069 371 1042 285 1069 318 b 874 511 1069 461 985 511 b 676 369 765 511 676 460 b 749 265 676 317 704 285 b 656 142 688 246 656 200 b 872 -8 656 43 740 -8 z m 872 94 b 804 157 835 94 804 118 b 872 221 804 197 835 221 b 940 158 913 221 940 197 b 872 94 940 118 911 94 z m 874 303 b 814 357 842 303 814 324 b 874 413 814 390 842 413 b 932 358 906 413 932 392 b 874 303 932 325 907 303 z m 133 0 l 250 0 l 1000 993 l 883 993 z m 246 479 b 457 639 383 479 457 543 b 356 753 457 700 415 742 b 444 861 411 768 444 804 b 249 1000 444 946 372 1000 b 44 832 121 1000 51 929 l 178 832 b 246 894 183 871 208 894 b 301 844 283 894 301 874 b 233 789 301 810 281 789 l 194 789 l 194 700 l 235 700 b 304 643 282 700 304 681 b 238 586 304 608 282 586 b 164 654 190 586 168 615 l 31 654 b 246 479 35 551 99 479 z "},"⅝":{"ha":1108,"x_min":0,"x_max":0,"o":"m 857 -8 b 1074 146 990 -8 1074 47 b 982 267 1074 203 1043 247 b 1054 371 1026 285 1054 318 b 858 511 1054 461 969 511 b 661 369 750 511 661 460 b 733 265 661 317 689 285 b 640 142 672 246 640 200 b 857 -8 640 43 725 -8 z m 857 94 b 789 157 819 94 789 118 b 857 221 789 197 819 221 b 925 158 897 221 925 197 b 857 94 925 118 896 94 z m 858 303 b 799 357 826 303 799 324 b 858 413 799 390 826 413 b 917 358 890 413 917 392 b 858 303 917 325 892 303 z m 236 479 b 446 663 367 479 446 550 b 290 825 446 767 383 825 b 165 768 221 825 186 797 l 169 885 l 417 885 l 417 993 l 63 993 l 51 693 l 160 693 b 231 729 172 714 193 729 b 294 661 271 729 294 703 b 233 590 294 619 272 590 b 169 643 189 590 175 613 l 32 643 b 236 479 35 550 97 479 z m 117 0 l 233 0 l 983 993 l 867 993 z "},"⅔":{"ha":1144,"x_min":0,"x_max":0,"o":"m 893 -8 b 1104 150 1031 -8 1104 54 b 1003 264 1104 213 1063 253 b 1092 372 1058 281 1092 317 b 896 511 1092 457 1019 511 b 692 344 768 511 699 442 l 825 344 b 893 406 831 383 856 406 b 949 356 931 406 949 385 b 881 301 949 321 928 301 l 842 301 l 842 213 l 882 213 b 951 156 929 213 951 193 b 885 97 951 119 929 97 b 811 165 838 97 815 126 l 678 165 b 893 -8 682 63 746 -8 z m 13 489 l 429 489 l 429 597 l 257 597 l 325 664 b 425 843 385 721 425 774 b 232 1000 425 933 361 1000 b 22 808 107 1000 28 933 l 160 808 b 225 888 167 864 189 888 b 278 833 260 888 278 867 b 190 694 278 792 244 750 l 13 508 z m 156 0 l 272 0 l 1022 993 l 906 993 z "},"⅞":{"ha":1068,"x_min":0,"x_max":0,"o":"m 815 -8 b 1032 146 949 -8 1032 47 b 940 267 1032 203 1001 247 b 1013 371 985 285 1013 318 b 817 511 1013 461 928 511 b 619 369 708 511 619 460 b 692 265 619 317 647 285 b 599 142 631 246 599 200 b 815 -8 599 43 683 -8 z m 815 94 b 747 157 778 94 747 118 b 815 221 747 197 778 221 b 883 158 856 221 883 197 b 815 94 883 118 854 94 z m 817 303 b 757 357 785 303 757 324 b 817 413 757 390 785 413 b 875 358 849 413 875 392 b 817 303 875 325 850 303 z m 94 489 l 246 489 l 429 978 l 429 993 l 29 993 l 29 874 l 240 874 z m 49 0 l 165 0 l 915 993 l 799 993 z "},"Ⓟ":{"ha":1171,"x_min":0,"x_max":0,"o":"m 400 221 l 550 221 l 550 414 l 613 414 b 826 590 747 414 826 472 l 826 594 b 606 778 826 713 753 778 l 400 778 z m 550 515 l 550 664 l 600 664 b 685 594 654 664 685 643 l 685 590 b 600 515 685 542 654 515 z m 585 44 b 140 496 346 44 140 225 b 588 949 140 764 339 949 b 1031 499 832 949 1031 765 b 585 44 1031 228 826 44 z m 585 -22 b 1111 499 878 -22 1111 204 b 588 1015 1111 786 885 1015 b 61 496 293 1015 61 785 b 585 -22 61 203 294 -22 z "},"″":{"ha":597,"x_min":0,"x_max":0,"o":"m 54 626 l 196 626 l 279 993 l 85 993 z m 324 626 l 467 626 l 549 993 l 354 993 z "},"′":{"ha":328,"x_min":0,"x_max":0,"o":"m 54 626 l 196 626 l 279 993 l 85 993 z "}," ":{"ha":132,"x_min":0,"x_max":0,"o":""}}}
